<?xml version="1.0" encoding="utf-8" standalone="no"?>
<!DOCTYPE svg PUBLIC "-//W3C//DTD SVG 1.1//EN" "http://www.w3.org/Graphics/SVG/1.1/DTD/svg11.dtd">
<svg width="3000px" height="3000px" version="1.1" xmlns="http://www.w3.org/2000/svg" xmlns:xlink="http://www.w3.org/1999/xlink">
<g id="ideograms">
<path d="M1500.000,170.000 A1330.000,1330.000 40.000 0,1 2488.099,609.741 L2502.957,596.354 A1350.000,1350.000 0.000 0,0 1500.000,150.000 Z" style="stroke-width:2.0;stroke:rgb(115,115,115);stroke-linecap:round;fill:rgb(116,196,118);"/>
<path d="M1500.000,170.000 A1330.000,1330.000 40.000 0,1 2488.099,609.741 L2502.957,596.354 A1350.000,1350.000 0.000 0,0 1500.000,150.000 Z" style="stroke-width:2.0;stroke:rgb(115,115,115);stroke-linecap:round;fill:none;"/>
<path d="M2501.824,625.215 A1330.000,1330.000 40.000 0,1 2577.292,720.037 L2593.491,708.308 A1350.000,1350.000 0.000 0,0 2516.889,612.061 Z" style="stroke-width:2.0;stroke:rgb(115,115,115);stroke-linecap:round;fill:rgb(116,196,118);"/>
<path d="M2501.824,625.215 A1330.000,1330.000 40.000 0,1 2577.292,720.037 L2593.491,708.308 A1350.000,1350.000 0.000 0,0 2516.889,612.061 Z" style="stroke-width:2.0;stroke:rgb(115,115,115);stroke-linecap:round;fill:none;"/>
<path d="M2589.291,736.885 A1330.000,1330.000 40.000 0,1 2654.231,839.204 L2671.588,829.267 A1350.000,1350.000 0.000 0,0 2605.671,725.409 Z" style="stroke-width:2.0;stroke:rgb(115,115,115);stroke-linecap:round;fill:rgb(116,196,118);"/>
<path d="M2589.291,736.885 A1330.000,1330.000 40.000 0,1 2654.231,839.204 L2671.588,829.267 A1350.000,1350.000 0.000 0,0 2605.671,725.409 Z" style="stroke-width:2.0;stroke:rgb(115,115,115);stroke-linecap:round;fill:none;"/>
<path d="M2664.368,857.234 A1330.000,1330.000 40.000 0,1 2699.076,924.574 L2717.108,915.920 A1350.000,1350.000 0.000 0,0 2681.877,847.569 Z" style="stroke-width:2.0;stroke:rgb(115,115,115);stroke-linecap:round;fill:rgb(116,196,118);"/>
<path d="M2664.368,857.234 A1330.000,1330.000 40.000 0,1 2699.076,924.574 L2717.108,915.920 A1350.000,1350.000 0.000 0,0 2681.877,847.569 Z" style="stroke-width:2.0;stroke:rgb(115,115,115);stroke-linecap:round;fill:none;"/>
<path d="M2707.880,943.291 A1330.000,1330.000 40.000 0,1 2736.226,1009.445 L2754.816,1002.068 A1350.000,1350.000 0.000 0,0 2726.044,934.919 Z" style="stroke-width:2.0;stroke:rgb(115,115,115);stroke-linecap:round;fill:rgb(116,196,118);"/>
<path d="M2707.880,943.291 A1330.000,1330.000 40.000 0,1 2736.226,1009.445 L2754.816,1002.068 A1350.000,1350.000 0.000 0,0 2726.044,934.919 Z" style="stroke-width:2.0;stroke:rgb(115,115,115);stroke-linecap:round;fill:none;"/>
<path d="M2743.706,1028.730 A1330.000,1330.000 40.000 0,1 2765.060,1089.483 L2784.083,1083.310 A1350.000,1350.000 0.000 0,0 2762.408,1021.643 Z" style="stroke-width:2.0;stroke:rgb(115,115,115);stroke-linecap:round;fill:rgb(116,196,118);"/>
<path d="M2743.706,1028.730 A1330.000,1330.000 40.000 0,1 2765.060,1089.483 L2784.083,1083.310 A1350.000,1350.000 0.000 0,0 2762.408,1021.643 Z" style="stroke-width:2.0;stroke:rgb(115,115,115);stroke-linecap:round;fill:none;"/>
<path d="M2771.291,1109.207 A1330.000,1330.000 40.000 0,1 2787.775,1167.531 L2807.140,1162.532 A1350.000,1350.000 0.000 0,0 2790.408,1103.330 Z" style="stroke-width:2.0;stroke:rgb(115,115,115);stroke-linecap:round;fill:rgb(116,196,118);"/>
<path d="M2771.291,1109.207 A1330.000,1330.000 40.000 0,1 2787.775,1167.531 L2807.140,1162.532 A1350.000,1350.000 0.000 0,0 2790.408,1103.330 Z" style="stroke-width:2.0;stroke:rgb(115,115,115);stroke-linecap:round;fill:none;"/>
<path d="M2792.790,1187.599 A1330.000,1330.000 40.000 0,1 2804.217,1239.387 L2823.829,1235.468 A1350.000,1350.000 0.000 0,0 2812.230,1182.901 Z" style="stroke-width:2.0;stroke:rgb(115,115,115);stroke-linecap:round;fill:rgb(116,196,118);"/>
<path d="M2792.790,1187.599 A1330.000,1330.000 40.000 0,1 2804.217,1239.387 L2823.829,1235.468 A1350.000,1350.000 0.000 0,0 2812.230,1182.901 Z" style="stroke-width:2.0;stroke:rgb(115,115,115);stroke-linecap:round;fill:none;"/>
<path d="M2808.112,1259.702 A1330.000,1330.000 40.000 0,1 2815.560,1304.546 L2835.343,1301.607 A1350.000,1350.000 0.000 0,0 2827.783,1256.088 Z" style="stroke-width:2.0;stroke:rgb(115,115,115);stroke-linecap:round;fill:rgb(116,196,118);"/>
<path d="M2808.112,1259.702 A1330.000,1330.000 40.000 0,1 2815.560,1304.546 L2835.343,1301.607 A1350.000,1350.000 0.000 0,0 2827.783,1256.088 Z" style="stroke-width:2.0;stroke:rgb(115,115,115);stroke-linecap:round;fill:none;"/>
<path d="M2818.440,1325.029 A1330.000,1330.000 40.000 0,1 2823.650,1370.189 L2843.554,1368.237 A1350.000,1350.000 0.000 0,0 2838.267,1322.398 Z" style="stroke-width:2.0;stroke:rgb(115,115,115);stroke-linecap:round;fill:rgb(116,196,118);"/>
<path d="M2818.440,1325.029 A1330.000,1330.000 40.000 0,1 2823.650,1370.189 L2843.554,1368.237 A1350.000,1350.000 0.000 0,0 2838.267,1322.398 Z" style="stroke-width:2.0;stroke:rgb(115,115,115);stroke-linecap:round;fill:none;"/>
<path d="M2825.509,1390.789 A1330.000,1330.000 40.000 0,1 2828.467,1436.152 L2848.444,1435.192 A1350.000,1350.000 0.000 0,0 2845.441,1389.147 Z" style="stroke-width:2.0;stroke:rgb(115,115,115);stroke-linecap:round;fill:rgb(116,196,118);"/>
<path d="M2825.509,1390.789 A1330.000,1330.000 40.000 0,1 2828.467,1436.152 L2848.444,1435.192 A1350.000,1350.000 0.000 0,0 2845.441,1389.147 Z" style="stroke-width:2.0;stroke:rgb(115,115,115);stroke-linecap:round;fill:none;"/>
<path d="M2829.299,1456.820 A1330.000,1330.000 40.000 0,1 2829.999,1498.485 L2849.999,1498.462 A1350.000,1350.000 0.000 0,0 2849.288,1456.170 Z" style="stroke-width:2.0;stroke:rgb(115,115,115);stroke-linecap:round;fill:rgb(116,196,118);"/>
<path d="M2829.299,1456.820 A1330.000,1330.000 40.000 0,1 2829.999,1498.485 L2849.999,1498.462 A1350.000,1350.000 0.000 0,0 2849.288,1456.170 Z" style="stroke-width:2.0;stroke:rgb(115,115,115);stroke-linecap:round;fill:none;"/>
<path d="M2829.862,1519.169 A1330.000,1330.000 40.000 0,1 2828.609,1560.821 L2848.588,1561.735 A1350.000,1350.000 0.000 0,0 2849.860,1519.457 Z" style="stroke-width:2.0;stroke:rgb(115,115,115);stroke-linecap:round;fill:rgb(116,196,118);"/>
<path d="M2829.862,1519.169 A1330.000,1330.000 40.000 0,1 2828.609,1560.821 L2848.588,1561.735 A1350.000,1350.000 0.000 0,0 2849.860,1519.457 Z" style="stroke-width:2.0;stroke:rgb(115,115,115);stroke-linecap:round;fill:none;"/>
<path d="M2827.502,1581.476 A1330.000,1330.000 40.000 0,1 2824.298,1623.023 L2844.212,1624.873 A1350.000,1350.000 0.000 0,0 2847.464,1582.701 Z" style="stroke-width:2.0;stroke:rgb(115,115,115);stroke-linecap:round;fill:rgb(116,196,118);"/>
<path d="M2827.502,1581.476 A1330.000,1330.000 40.000 0,1 2824.298,1623.023 L2844.212,1624.873 A1350.000,1350.000 0.000 0,0 2847.464,1582.701 Z" style="stroke-width:2.0;stroke:rgb(115,115,115);stroke-linecap:round;fill:none;"/>
<path d="M2822.225,1643.603 A1330.000,1330.000 40.000 0,1 2817.077,1684.955 L2836.883,1687.736 A1350.000,1350.000 0.000 0,0 2842.108,1645.763 Z" style="stroke-width:2.0;stroke:rgb(115,115,115);stroke-linecap:round;fill:rgb(116,196,118);"/>
<path d="M2822.225,1643.603 A1330.000,1330.000 40.000 0,1 2817.077,1684.955 L2836.883,1687.736 A1350.000,1350.000 0.000 0,0 2842.108,1645.763 Z" style="stroke-width:2.0;stroke:rgb(115,115,115);stroke-linecap:round;fill:none;"/>
<path d="M2814.041,1705.416 A1330.000,1330.000 40.000 0,1 2806.961,1746.481 L2826.615,1750.187 A1350.000,1350.000 0.000 0,0 2833.801,1708.505 Z" style="stroke-width:2.0;stroke:rgb(115,115,115);stroke-linecap:round;fill:rgb(116,196,118);"/>
<path d="M2814.041,1705.416 A1330.000,1330.000 40.000 0,1 2806.961,1746.481 L2826.615,1750.187 A1350.000,1350.000 0.000 0,0 2833.801,1708.505 Z" style="stroke-width:2.0;stroke:rgb(115,115,115);stroke-linecap:round;fill:none;"/>
<path d="M2802.970,1766.776 A1330.000,1330.000 40.000 0,1 2794.843,1803.777 L2814.315,1808.346 A1350.000,1350.000 0.000 0,0 2822.563,1770.788 Z" style="stroke-width:2.0;stroke:rgb(115,115,115);stroke-linecap:round;fill:rgb(116,196,118);"/>
<path d="M2802.970,1766.776 A1330.000,1330.000 40.000 0,1 2794.843,1803.777 L2814.315,1808.346 A1350.000,1350.000 0.000 0,0 2822.563,1770.788 Z" style="stroke-width:2.0;stroke:rgb(115,115,115);stroke-linecap:round;fill:none;"/>
<path d="M2789.962,1823.878 A1330.000,1330.000 40.000 0,1 2780.215,1860.485 L2799.466,1865.906 A1350.000,1350.000 0.000 0,0 2809.360,1828.748 Z" style="stroke-width:2.0;stroke:rgb(115,115,115);stroke-linecap:round;fill:rgb(116,196,118);"/>
<path d="M2789.962,1823.878 A1330.000,1330.000 40.000 0,1 2780.215,1860.485 L2799.466,1865.906 A1350.000,1350.000 0.000 0,0 2809.360,1828.748 Z" style="stroke-width:2.0;stroke:rgb(115,115,115);stroke-linecap:round;fill:none;"/>
<path d="M2774.454,1880.351 A1330.000,1330.000 40.000 0,1 2763.104,1916.494 L2782.098,1922.757 A1350.000,1350.000 0.000 0,0 2793.619,1886.071 Z" style="stroke-width:2.0;stroke:rgb(115,115,115);stroke-linecap:round;fill:rgb(116,196,118);"/>
<path d="M2774.454,1880.351 A1330.000,1330.000 40.000 0,1 2763.104,1916.494 L2782.098,1922.757 A1350.000,1350.000 0.000 0,0 2793.619,1886.071 Z" style="stroke-width:2.0;stroke:rgb(115,115,115);stroke-linecap:round;fill:none;"/>
<path d="M2756.474,1936.087 A1330.000,1330.000 40.000 0,1 2744.883,1968.151 L2763.603,1975.191 A1350.000,1350.000 0.000 0,0 2775.369,1942.645 Z" style="stroke-width:2.0;stroke:rgb(115,115,115);stroke-linecap:round;fill:rgb(116,196,118);"/>
<path d="M2756.474,1936.087 A1330.000,1330.000 40.000 0,1 2744.883,1968.151 L2763.603,1975.191 A1350.000,1350.000 0.000 0,0 2775.369,1942.645 Z" style="stroke-width:2.0;stroke:rgb(115,115,115);stroke-linecap:round;fill:none;"/>
<path d="M2737.452,1987.455 A1330.000,1330.000 40.000 0,1 2724.551,2019.014 L2742.965,2026.819 A1350.000,1350.000 0.000 0,0 2756.060,1994.785 Z" style="stroke-width:2.0;stroke:rgb(115,115,115);stroke-linecap:round;fill:rgb(116,196,118);"/>
<path d="M2737.452,1987.455 A1330.000,1330.000 40.000 0,1 2724.551,2019.014 L2742.965,2026.819 A1350.000,1350.000 0.000 0,0 2756.060,1994.785 Z" style="stroke-width:2.0;stroke:rgb(115,115,115);stroke-linecap:round;fill:none;"/>
<path d="M2716.331,2037.996 A1330.000,1330.000 40.000 0,1 2702.141,2068.997 L2720.218,2077.553 A1350.000,1350.000 0.000 0,0 2734.622,2046.086 Z" style="stroke-width:2.0;stroke:rgb(115,115,115);stroke-linecap:round;fill:rgb(116,196,118);"/>
<path d="M2716.331,2037.996 A1330.000,1330.000 40.000 0,1 2702.141,2068.997 L2720.218,2077.553 A1350.000,1350.000 0.000 0,0 2734.622,2046.086 Z" style="stroke-width:2.0;stroke:rgb(115,115,115);stroke-linecap:round;fill:none;"/>
<path d="M2693.146,2087.624 A1330.000,1330.000 40.000 0,1 2679.447,2114.658 L2697.183,2123.901 A1350.000,1350.000 0.000 0,0 2711.088,2096.460 Z" style="stroke-width:2.0;stroke:rgb(115,115,115);stroke-linecap:round;fill:rgb(116,196,118);"/>
<path d="M2693.146,2087.624 A1330.000,1330.000 40.000 0,1 2679.447,2114.658 L2697.183,2123.901 A1350.000,1350.000 0.000 0,0 2711.088,2096.460 Z" style="stroke-width:2.0;stroke:rgb(115,115,115);stroke-linecap:round;fill:none;"/>
<path d="M2669.746,2132.926 A1330.000,1330.000 40.000 0,1 2655.020,2159.415 L2672.389,2169.331 A1350.000,1350.000 0.000 0,0 2687.336,2142.444 Z" style="stroke-width:2.0;stroke:rgb(115,115,115);stroke-linecap:round;fill:rgb(116,196,118);"/>
<path d="M2669.746,2132.926 A1330.000,1330.000 40.000 0,1 2655.020,2159.415 L2672.389,2169.331 A1350.000,1350.000 0.000 0,0 2687.336,2142.444 Z" style="stroke-width:2.0;stroke:rgb(115,115,115);stroke-linecap:round;fill:none;"/>
<path d="M2644.626,2177.298 A1330.000,1330.000 40.000 0,1 2628.896,2203.203 L2645.872,2213.777 A1350.000,1350.000 0.000 0,0 2661.838,2187.483 Z" style="stroke-width:2.0;stroke:rgb(115,115,115);stroke-linecap:round;fill:rgb(116,196,118);"/>
<path d="M2644.626,2177.298 A1330.000,1330.000 40.000 0,1 2628.896,2203.203 L2645.872,2213.777 A1350.000,1350.000 0.000 0,0 2661.838,2187.483 Z" style="stroke-width:2.0;stroke:rgb(115,115,115);stroke-linecap:round;fill:none;"/>
<path d="M2617.823,2220.674 A1330.000,1330.000 40.000 0,1 2601.112,2245.957 L2617.670,2257.174 A1350.000,1350.000 0.000 0,0 2634.633,2231.511 Z" style="stroke-width:2.0;stroke:rgb(115,115,115);stroke-linecap:round;fill:rgb(116,196,118);"/>
<path d="M2617.823,2220.674 A1330.000,1330.000 40.000 0,1 2601.112,2245.957 L2617.670,2257.174 A1350.000,1350.000 0.000 0,0 2634.633,2231.511 Z" style="stroke-width:2.0;stroke:rgb(115,115,115);stroke-linecap:round;fill:none;"/>
<path d="M2589.378,2262.991 A1330.000,1330.000 40.000 0,1 2571.710,2287.615 L2587.826,2299.459 A1350.000,1350.000 0.000 0,0 2605.760,2274.465 Z" style="stroke-width:2.0;stroke:rgb(115,115,115);stroke-linecap:round;fill:rgb(116,196,118);"/>
<path d="M2589.378,2262.991 A1330.000,1330.000 40.000 0,1 2571.710,2287.615 L2587.826,2299.459 A1350.000,1350.000 0.000 0,0 2605.760,2274.465 Z" style="stroke-width:2.0;stroke:rgb(115,115,115);stroke-linecap:round;fill:none;"/>
<path d="M2559.332,2304.187 A1330.000,1330.000 40.000 0,1 2543.087,2325.148 L2558.773,2337.556 A1350.000,1350.000 0.000 0,0 2575.261,2316.280 Z" style="stroke-width:2.0;stroke:rgb(115,115,115);stroke-linecap:round;fill:rgb(116,196,118);"/>
<path d="M2559.332,2304.187 A1330.000,1330.000 40.000 0,1 2543.087,2325.148 L2558.773,2337.556 A1350.000,1350.000 0.000 0,0 2575.261,2316.280 Z" style="stroke-width:2.0;stroke:rgb(115,115,115);stroke-linecap:round;fill:none;"/>
<path d="M2530.129,2341.270 A1330.000,1330.000 40.000 0,1 2513.151,2361.641 L2528.386,2374.598 A1350.000,1350.000 0.000 0,0 2545.619,2353.920 Z" style="stroke-width:2.0;stroke:rgb(115,115,115);stroke-linecap:round;fill:rgb(116,196,118);"/>
<path d="M2530.129,2341.270 A1330.000,1330.000 40.000 0,1 2513.151,2361.641 L2528.386,2374.598 A1350.000,1350.000 0.000 0,0 2545.619,2353.920 Z" style="stroke-width:2.0;stroke:rgb(115,115,115);stroke-linecap:round;fill:none;"/>
<path d="M2499.628,2377.293 A1330.000,1330.000 40.000 0,1 2481.938,2397.049 L2496.704,2410.538 A1350.000,1350.000 0.000 0,0 2514.660,2390.485 Z" style="stroke-width:2.0;stroke:rgb(115,115,115);stroke-linecap:round;fill:rgb(116,196,118);"/>
<path d="M2499.628,2377.293 A1330.000,1330.000 40.000 0,1 2481.938,2397.049 L2496.704,2410.538 A1350.000,1350.000 0.000 0,0 2514.660,2390.485 Z" style="stroke-width:2.0;stroke:rgb(115,115,115);stroke-linecap:round;fill:none;"/>
<path d="M2467.869,2412.211 A1330.000,1330.000 40.000 0,1 2449.489,2431.327 L2463.767,2445.332 A1350.000,1350.000 0.000 0,0 2482.423,2425.929 Z" style="stroke-width:2.0;stroke:rgb(115,115,115);stroke-linecap:round;fill:rgb(116,196,118);"/>
<path d="M2467.869,2412.211 A1330.000,1330.000 40.000 0,1 2449.489,2431.327 L2463.767,2445.332 A1350.000,1350.000 0.000 0,0 2482.423,2425.929 Z" style="stroke-width:2.0;stroke:rgb(115,115,115);stroke-linecap:round;fill:none;"/>
<path d="M2434.891,2445.981 A1330.000,1330.000 40.000 0,1 2418.587,2461.820 L2432.401,2476.283 A1350.000,1350.000 0.000 0,0 2448.949,2460.206 Z" style="stroke-width:2.0;stroke:rgb(115,115,115);stroke-linecap:round;fill:rgb(116,196,118);"/>
<path d="M2434.891,2445.981 A1330.000,1330.000 40.000 0,1 2418.587,2461.820 L2432.401,2476.283 A1350.000,1350.000 0.000 0,0 2448.949,2460.206 Z" style="stroke-width:2.0;stroke:rgb(115,115,115);stroke-linecap:round;fill:none;"/>
<path d="M2403.518,2475.989 A1330.000,1330.000 40.000 0,1 2386.707,2491.287 L2400.041,2506.194 A1350.000,1350.000 0.000 0,0 2417.105,2490.666 Z" style="stroke-width:2.0;stroke:rgb(115,115,115);stroke-linecap:round;fill:rgb(116,196,118);"/>
<path d="M2403.518,2475.989 A1330.000,1330.000 40.000 0,1 2386.707,2491.287 L2400.041,2506.194 A1350.000,1350.000 0.000 0,0 2417.105,2490.666 Z" style="stroke-width:2.0;stroke:rgb(115,115,115);stroke-linecap:round;fill:none;"/>
<path d="M2371.183,2504.957 A1330.000,1330.000 40.000 0,1 2353.882,2519.699 L2366.722,2535.033 A1350.000,1350.000 0.000 0,0 2384.284,2520.070 Z" style="stroke-width:2.0;stroke:rgb(115,115,115);stroke-linecap:round;fill:rgb(116,196,118);"/>
<path d="M2371.183,2504.957 A1330.000,1330.000 40.000 0,1 2353.882,2519.699 L2366.722,2535.033 A1350.000,1350.000 0.000 0,0 2384.284,2520.070 Z" style="stroke-width:2.0;stroke:rgb(115,115,115);stroke-linecap:round;fill:none;"/>
<path d="M2337.920,2532.855 A1330.000,1330.000 40.000 0,1 2320.147,2547.024 L2332.480,2562.769 A1350.000,1350.000 0.000 0,0 2350.521,2548.387 Z" style="stroke-width:2.0;stroke:rgb(115,115,115);stroke-linecap:round;fill:rgb(116,196,118);"/>
<path d="M2337.920,2532.855 A1330.000,1330.000 40.000 0,1 2320.147,2547.024 L2332.480,2562.769 A1350.000,1350.000 0.000 0,0 2350.521,2548.387 Z" style="stroke-width:2.0;stroke:rgb(115,115,115);stroke-linecap:round;fill:none;"/>
<path d="M2303.764,2559.652 A1330.000,1330.000 40.000 0,1 2285.538,2573.234 L2297.350,2589.372 A1350.000,1350.000 0.000 0,0 2315.851,2575.587 Z" style="stroke-width:2.0;stroke:rgb(115,115,115);stroke-linecap:round;fill:rgb(116,196,118);"/>
<path d="M2303.764,2559.652 A1330.000,1330.000 40.000 0,1 2285.538,2573.234 L2297.350,2589.372 A1350.000,1350.000 0.000 0,0 2315.851,2575.587 Z" style="stroke-width:2.0;stroke:rgb(115,115,115);stroke-linecap:round;fill:none;"/>
<path d="M2268.752,2585.320 A1330.000,1330.000 40.000 0,1 2250.092,2598.300 L2261.371,2614.815 A1350.000,1350.000 0.000 0,0 2280.312,2601.641 Z" style="stroke-width:2.0;stroke:rgb(115,115,115);stroke-linecap:round;fill:rgb(116,196,118);"/>
<path d="M2268.752,2585.320 A1330.000,1330.000 40.000 0,1 2250.092,2598.300 L2261.371,2614.815 A1350.000,1350.000 0.000 0,0 2280.312,2601.641 Z" style="stroke-width:2.0;stroke:rgb(115,115,115);stroke-linecap:round;fill:none;"/>
<path d="M2232.921,2609.832 A1330.000,1330.000 40.000 0,1 2213.847,2622.195 L2224.581,2639.071 A1350.000,1350.000 0.000 0,0 2243.942,2626.521 Z" style="stroke-width:2.0;stroke:rgb(115,115,115);stroke-linecap:round;fill:rgb(116,196,118);"/>
<path d="M2232.921,2609.832 A1330.000,1330.000 40.000 0,1 2213.847,2622.195 L2224.581,2639.071 A1350.000,1350.000 0.000 0,0 2243.942,2626.521 Z" style="stroke-width:2.0;stroke:rgb(115,115,115);stroke-linecap:round;fill:none;"/>
<path d="M2196.308,2633.161 A1330.000,1330.000 40.000 0,1 2176.841,2644.896 L2187.019,2662.112 A1350.000,1350.000 0.000 0,0 2206.779,2650.201 Z" style="stroke-width:2.0;stroke:rgb(115,115,115);stroke-linecap:round;fill:rgb(116,196,118);"/>
<path d="M2196.308,2633.161 A1330.000,1330.000 40.000 0,1 2176.841,2644.896 L2187.019,2662.112 A1350.000,1350.000 0.000 0,0 2206.779,2650.201 Z" style="stroke-width:2.0;stroke:rgb(115,115,115);stroke-linecap:round;fill:none;"/>
<path d="M2158.954,2655.283 A1330.000,1330.000 40.000 0,1 2139.114,2666.376 L2148.725,2683.915 A1350.000,1350.000 0.000 0,0 2168.863,2672.656 Z" style="stroke-width:2.0;stroke:rgb(115,115,115);stroke-linecap:round;fill:rgb(116,196,118);"/>
<path d="M2158.954,2655.283 A1330.000,1330.000 40.000 0,1 2139.114,2666.376 L2148.725,2683.915 A1350.000,1350.000 0.000 0,0 2168.863,2672.656 Z" style="stroke-width:2.0;stroke:rgb(115,115,115);stroke-linecap:round;fill:none;"/>
<path d="M2120.898,2676.174 A1330.000,1330.000 40.000 0,1 2100.707,2686.613 L2109.740,2704.457 A1350.000,1350.000 0.000 0,0 2130.235,2693.861 Z" style="stroke-width:2.0;stroke:rgb(115,115,115);stroke-linecap:round;fill:rgb(116,196,118);"/>
<path d="M2120.898,2676.174 A1330.000,1330.000 40.000 0,1 2100.707,2686.613 L2109.740,2704.457 A1350.000,1350.000 0.000 0,0 2130.235,2693.861 Z" style="stroke-width:2.0;stroke:rgb(115,115,115);stroke-linecap:round;fill:none;"/>
<path d="M2082.180,2695.812 A1330.000,1330.000 40.000 0,1 2061.659,2705.587 L2070.105,2723.716 A1350.000,1350.000 0.000 0,0 2090.935,2713.794 Z" style="stroke-width:2.0;stroke:rgb(115,115,115);stroke-linecap:round;fill:rgb(116,196,118);"/>
<path d="M2082.180,2695.812 A1330.000,1330.000 40.000 0,1 2061.659,2705.587 L2070.105,2723.716 A1350.000,1350.000 0.000 0,0 2090.935,2713.794 Z" style="stroke-width:2.0;stroke:rgb(115,115,115);stroke-linecap:round;fill:none;"/>
<path d="M2042.842,2714.176 A1330.000,1330.000 40.000 0,1 2022.013,2723.275 L2029.862,2741.671 A1350.000,1350.000 0.000 0,0 2051.005,2732.434 Z" style="stroke-width:2.0;stroke:rgb(115,115,115);stroke-linecap:round;fill:rgb(116,196,118);"/>
<path d="M2042.842,2714.176 A1330.000,1330.000 40.000 0,1 2022.013,2723.275 L2029.862,2741.671 A1350.000,1350.000 0.000 0,0 2051.005,2732.434 Z" style="stroke-width:2.0;stroke:rgb(115,115,115);stroke-linecap:round;fill:none;"/>
<path d="M2002.925,2731.246 A1330.000,1330.000 40.000 0,1 1981.810,2739.661 L1989.055,2758.302 A1350.000,1350.000 0.000 0,0 2010.488,2749.761 Z" style="stroke-width:2.0;stroke:rgb(115,115,115);stroke-linecap:round;fill:rgb(116,196,118);"/>
<path d="M2002.925,2731.246 A1330.000,1330.000 40.000 0,1 1981.810,2739.661 L1989.055,2758.302 A1350.000,1350.000 0.000 0,0 2010.488,2749.761 Z" style="stroke-width:2.0;stroke:rgb(115,115,115);stroke-linecap:round;fill:none;"/>
<path d="M1962.473,2747.004 A1330.000,1330.000 40.000 0,1 1944.667,2753.464 L1951.353,2772.313 A1350.000,1350.000 0.000 0,0 1969.427,2765.756 Z" style="stroke-width:2.0;stroke:rgb(115,115,115);stroke-linecap:round;fill:rgb(116,196,118);"/>
<path d="M1962.473,2747.004 A1330.000,1330.000 40.000 0,1 1944.667,2753.464 L1951.353,2772.313 A1350.000,1350.000 0.000 0,0 1969.427,2765.756 Z" style="stroke-width:2.0;stroke:rgb(115,115,115);stroke-linecap:round;fill:none;"/>
<path d="M1925.119,2760.228 A1330.000,1330.000 40.000 0,1 1907.128,2766.154 L1913.251,2785.194 A1350.000,1350.000 0.000 0,0 1931.512,2779.178 Z" style="stroke-width:2.0;stroke:rgb(115,115,115);stroke-linecap:round;fill:rgb(116,196,118);"/>
<path d="M1925.119,2760.228 A1330.000,1330.000 40.000 0,1 1907.128,2766.154 L1913.251,2785.194 A1350.000,1350.000 0.000 0,0 1931.512,2779.178 Z" style="stroke-width:2.0;stroke:rgb(115,115,115);stroke-linecap:round;fill:none;"/>
<path d="M1887.388,2772.333 A1330.000,1330.000 40.000 0,1 1869.229,2777.721 L1874.781,2796.935 A1350.000,1350.000 0.000 0,0 1893.213,2791.466 Z" style="stroke-width:2.0;stroke:rgb(115,115,115);stroke-linecap:round;fill:rgb(116,196,118);"/>
<path d="M1887.388,2772.333 A1330.000,1330.000 40.000 0,1 1869.229,2777.721 L1874.781,2796.935 A1350.000,1350.000 0.000 0,0 1893.213,2791.466 Z" style="stroke-width:2.0;stroke:rgb(115,115,115);stroke-linecap:round;fill:none;"/>
<path d="M1849.313,2783.308 A1330.000,1330.000 40.000 0,1 1831.001,2788.153 L1835.979,2807.524 A1350.000,1350.000 0.000 0,0 1854.566,2802.606 Z" style="stroke-width:2.0;stroke:rgb(115,115,115);stroke-linecap:round;fill:rgb(116,196,118);"/>
<path d="M1849.313,2783.308 A1330.000,1330.000 40.000 0,1 1831.001,2788.153 L1835.979,2807.524 A1350.000,1350.000 0.000 0,0 1854.566,2802.606 Z" style="stroke-width:2.0;stroke:rgb(115,115,115);stroke-linecap:round;fill:none;"/>
<path d="M1810.928,2793.145 A1330.000,1330.000 40.000 0,1 1792.480,2797.442 L1796.878,2816.952 A1350.000,1350.000 0.000 0,0 1815.604,2812.591 Z" style="stroke-width:2.0;stroke:rgb(115,115,115);stroke-linecap:round;fill:rgb(116,196,118);"/>
<path d="M1810.928,2793.145 A1330.000,1330.000 40.000 0,1 1792.480,2797.442 L1796.878,2816.952 A1350.000,1350.000 0.000 0,0 1815.604,2812.591 Z" style="stroke-width:2.0;stroke:rgb(115,115,115);stroke-linecap:round;fill:none;"/>
<path d="M1772.267,2801.834 A1330.000,1330.000 40.000 0,1 1753.699,2805.579 L1757.514,2825.212 A1350.000,1350.000 0.000 0,0 1776.361,2821.410 Z" style="stroke-width:2.0;stroke:rgb(115,115,115);stroke-linecap:round;fill:rgb(116,196,118);"/>
<path d="M1772.267,2801.834 A1330.000,1330.000 40.000 0,1 1753.699,2805.579 L1757.514,2825.212 A1350.000,1350.000 0.000 0,0 1776.361,2821.410 Z" style="stroke-width:2.0;stroke:rgb(115,115,115);stroke-linecap:round;fill:none;"/>
<path d="M1733.364,2809.367 A1330.000,1330.000 40.000 0,1 1714.693,2812.557 L1717.922,2832.295 A1350.000,1350.000 0.000 0,0 1736.874,2829.056 Z" style="stroke-width:2.0;stroke:rgb(115,115,115);stroke-linecap:round;fill:rgb(116,196,118);"/>
<path d="M1733.364,2809.367 A1330.000,1330.000 40.000 0,1 1714.693,2812.557 L1717.922,2832.295 A1350.000,1350.000 0.000 0,0 1736.874,2829.056 Z" style="stroke-width:2.0;stroke:rgb(115,115,115);stroke-linecap:round;fill:none;"/>
<path d="M1694.254,2815.738 A1330.000,1330.000 40.000 0,1 1675.496,2818.371 L1678.135,2838.196 A1350.000,1350.000 0.000 0,0 1697.176,2835.523 Z" style="stroke-width:2.0;stroke:rgb(115,115,115);stroke-linecap:round;fill:rgb(116,196,118);"/>
<path d="M1694.254,2815.738 A1330.000,1330.000 40.000 0,1 1675.496,2818.371 L1678.135,2838.196 A1350.000,1350.000 0.000 0,0 1697.176,2835.523 Z" style="stroke-width:2.0;stroke:rgb(115,115,115);stroke-linecap:round;fill:none;"/>
<path d="M1654.972,2820.940 A1330.000,1330.000 40.000 0,1 1636.144,2823.014 L1638.191,2842.908 A1350.000,1350.000 0.000 0,0 1657.303,2840.804 Z" style="stroke-width:2.0;stroke:rgb(115,115,115);stroke-linecap:round;fill:rgb(116,196,118);"/>
<path d="M1654.972,2820.940 A1330.000,1330.000 40.000 0,1 1636.144,2823.014 L1638.191,2842.908 A1350.000,1350.000 0.000 0,0 1657.303,2840.804 Z" style="stroke-width:2.0;stroke:rgb(115,115,115);stroke-linecap:round;fill:none;"/>
<path d="M1615.552,2824.971 A1330.000,1330.000 40.000 0,1 1596.671,2826.482 L1598.124,2846.429 A1350.000,1350.000 0.000 0,0 1617.290,2844.895 Z" style="stroke-width:2.0;stroke:rgb(115,115,115);stroke-linecap:round;fill:rgb(116,196,118);"/>
<path d="M1615.552,2824.971 A1330.000,1330.000 40.000 0,1 1596.671,2826.482 L1598.124,2846.429 A1350.000,1350.000 0.000 0,0 1617.290,2844.895 Z" style="stroke-width:2.0;stroke:rgb(115,115,115);stroke-linecap:round;fill:none;"/>
<path d="M1576.030,2827.825 A1330.000,1330.000 40.000 0,1 1557.112,2828.773 L1557.971,2848.755 A1350.000,1350.000 0.000 0,0 1577.173,2847.792 Z" style="stroke-width:2.0;stroke:rgb(115,115,115);stroke-linecap:round;fill:rgb(116,196,118);"/>
<path d="M1576.030,2827.825 A1330.000,1330.000 40.000 0,1 1557.112,2828.773 L1557.971,2848.755 A1350.000,1350.000 0.000 0,0 1577.173,2847.792 Z" style="stroke-width:2.0;stroke:rgb(115,115,115);stroke-linecap:round;fill:none;"/>
<path d="M1536.440,2829.501 A1330.000,1330.000 40.000 0,1 1521.290,2829.830 L1521.610,2849.827 A1350.000,1350.000 0.000 0,0 1536.988,2849.493 Z" style="stroke-width:2.0;stroke:rgb(115,115,115);stroke-linecap:round;fill:rgb(116,196,118);"/>
<path d="M1536.440,2829.501 A1330.000,1330.000 40.000 0,1 1521.290,2829.830 L1521.610,2849.827 A1350.000,1350.000 0.000 0,0 1536.988,2849.493 Z" style="stroke-width:2.0;stroke:rgb(115,115,115);stroke-linecap:round;fill:none;"/>
<path d="M1500.606,2830.000 A1330.000,1330.000 40.000 0,1 1485.453,2829.920 L1485.234,2849.919 A1350.000,1350.000 0.000 0,0 1500.615,2850.000 Z" style="stroke-width:2.0;stroke:rgb(115,115,115);stroke-linecap:round;fill:rgb(116,196,118);"/>
<path d="M1500.606,2830.000 A1330.000,1330.000 40.000 0,1 1485.453,2829.920 L1485.234,2849.919 A1350.000,1350.000 0.000 0,0 1500.615,2850.000 Z" style="stroke-width:2.0;stroke:rgb(115,115,115);stroke-linecap:round;fill:none;"/>
<path d="M1464.772,2829.533 A1330.000,1330.000 40.000 0,1 1449.626,2829.046 L1448.869,2849.031 A1350.000,1350.000 0.000 0,0 1464.242,2849.526 Z" style="stroke-width:2.0;stroke:rgb(115,115,115);stroke-linecap:round;fill:rgb(116,196,118);"/>
<path d="M1464.772,2829.533 A1330.000,1330.000 40.000 0,1 1449.626,2829.046 L1448.869,2849.031 A1350.000,1350.000 0.000 0,0 1464.242,2849.526 Z" style="stroke-width:2.0;stroke:rgb(115,115,115);stroke-linecap:round;fill:none;"/>
<path d="M1428.963,2828.102 A1330.000,1330.000 40.000 0,1 1413.836,2827.206 L1412.540,2847.164 A1350.000,1350.000 0.000 0,0 1427.895,2848.073 Z" style="stroke-width:2.0;stroke:rgb(115,115,115);stroke-linecap:round;fill:rgb(116,196,118);"/>
<path d="M1428.963,2828.102 A1330.000,1330.000 40.000 0,1 1413.836,2827.206 L1412.540,2847.164 A1350.000,1350.000 0.000 0,0 1427.895,2848.073 Z" style="stroke-width:2.0;stroke:rgb(115,115,115);stroke-linecap:round;fill:none;"/>
<path d="M1393.206,2825.705 A1330.000,1330.000 40.000 0,1 1378.109,2824.403 L1376.276,2844.319 A1350.000,1350.000 0.000 0,0 1391.600,2845.641 Z" style="stroke-width:2.0;stroke:rgb(115,115,115);stroke-linecap:round;fill:rgb(116,196,118);"/>
<path d="M1393.206,2825.705 A1330.000,1330.000 40.000 0,1 1378.109,2824.403 L1376.276,2844.319 A1350.000,1350.000 0.000 0,0 1391.600,2845.641 Z" style="stroke-width:2.0;stroke:rgb(115,115,115);stroke-linecap:round;fill:none;"/>
<path d="M1357.526,2822.347 A1330.000,1330.000 40.000 0,1 1342.470,2820.638 L1340.101,2840.497 A1350.000,1350.000 0.000 0,0 1355.384,2842.232 Z" style="stroke-width:2.0;stroke:rgb(115,115,115);stroke-linecap:round;fill:rgb(116,196,118);"/>
<path d="M1357.526,2822.347 A1330.000,1330.000 40.000 0,1 1342.470,2820.638 L1340.101,2840.497 A1350.000,1350.000 0.000 0,0 1355.384,2842.232 Z" style="stroke-width:2.0;stroke:rgb(115,115,115);stroke-linecap:round;fill:none;"/>
<path d="M1321.950,2818.028 A1330.000,1330.000 40.000 0,1 1306.945,2815.914 L1304.042,2835.702 A1350.000,1350.000 0.000 0,0 1319.273,2837.848 Z" style="stroke-width:2.0;stroke:rgb(115,115,115);stroke-linecap:round;fill:rgb(116,196,118);"/>
<path d="M1321.950,2818.028 A1330.000,1330.000 40.000 0,1 1306.945,2815.914 L1304.042,2835.702 A1350.000,1350.000 0.000 0,0 1319.273,2837.848 Z" style="stroke-width:2.0;stroke:rgb(115,115,115);stroke-linecap:round;fill:none;"/>
<path d="M1286.503,2812.753 A1330.000,1330.000 40.000 0,1 1271.560,2810.235 L1268.125,2829.938 A1350.000,1350.000 0.000 0,0 1283.293,2832.493 Z" style="stroke-width:2.0;stroke:rgb(115,115,115);stroke-linecap:round;fill:rgb(116,196,118);"/>
<path d="M1286.503,2812.753 A1330.000,1330.000 40.000 0,1 1271.560,2810.235 L1268.125,2829.938 A1350.000,1350.000 0.000 0,0 1283.293,2832.493 Z" style="stroke-width:2.0;stroke:rgb(115,115,115);stroke-linecap:round;fill:none;"/>
<path d="M1251.212,2806.524 A1330.000,1330.000 40.000 0,1 1236.342,2803.604 L1232.377,2823.207 A1350.000,1350.000 0.000 0,0 1247.470,2826.171 Z" style="stroke-width:2.0;stroke:rgb(115,115,115);stroke-linecap:round;fill:rgb(116,196,118);"/>
<path d="M1251.212,2806.524 A1330.000,1330.000 40.000 0,1 1236.342,2803.604 L1232.377,2823.207 A1350.000,1350.000 0.000 0,0 1247.470,2826.171 Z" style="stroke-width:2.0;stroke:rgb(115,115,115);stroke-linecap:round;fill:none;"/>
<path d="M1216.100,2799.346 A1330.000,1330.000 40.000 0,1 1201.315,2796.027 L1196.823,2815.517 A1350.000,1350.000 0.000 0,0 1211.831,2818.885 Z" style="stroke-width:2.0;stroke:rgb(115,115,115);stroke-linecap:round;fill:rgb(116,196,118);"/>
<path d="M1216.100,2799.346 A1330.000,1330.000 40.000 0,1 1201.315,2796.027 L1196.823,2815.517 A1350.000,1350.000 0.000 0,0 1211.831,2818.885 Z" style="stroke-width:2.0;stroke:rgb(115,115,115);stroke-linecap:round;fill:none;"/>
<path d="M1181.195,2791.226 A1330.000,1330.000 40.000 0,1 1166.504,2787.509 L1161.489,2806.871 A1350.000,1350.000 0.000 0,0 1176.401,2810.643 Z" style="stroke-width:2.0;stroke:rgb(115,115,115);stroke-linecap:round;fill:rgb(116,196,118);"/>
<path d="M1181.195,2791.226 A1330.000,1330.000 40.000 0,1 1166.504,2787.509 L1161.489,2806.871 A1350.000,1350.000 0.000 0,0 1176.401,2810.643 Z" style="stroke-width:2.0;stroke:rgb(115,115,115);stroke-linecap:round;fill:none;"/>
<path d="M1146.522,2782.167 A1330.000,1330.000 40.000 0,1 1131.936,2778.057 L1126.401,2797.276 A1350.000,1350.000 0.000 0,0 1141.206,2801.448 Z" style="stroke-width:2.0;stroke:rgb(115,115,115);stroke-linecap:round;fill:rgb(116,196,118);"/>
<path d="M1146.522,2782.167 A1330.000,1330.000 40.000 0,1 1131.936,2778.057 L1126.401,2797.276 A1350.000,1350.000 0.000 0,0 1141.206,2801.448 Z" style="stroke-width:2.0;stroke:rgb(115,115,115);stroke-linecap:round;fill:none;"/>
<path d="M1112.105,2772.178 A1330.000,1330.000 40.000 0,1 1097.635,2767.676 L1091.585,2786.739 A1350.000,1350.000 0.000 0,0 1106.272,2791.309 Z" style="stroke-width:2.0;stroke:rgb(115,115,115);stroke-linecap:round;fill:rgb(116,196,118);"/>
<path d="M1112.105,2772.178 A1330.000,1330.000 40.000 0,1 1097.635,2767.676 L1091.585,2786.739 A1350.000,1350.000 0.000 0,0 1106.272,2791.309 Z" style="stroke-width:2.0;stroke:rgb(115,115,115);stroke-linecap:round;fill:none;"/>
<path d="M1077.969,2761.265 A1330.000,1330.000 40.000 0,1 1063.626,2756.375 L1057.064,2775.268 A1350.000,1350.000 0.000 0,0 1071.623,2780.232 Z" style="stroke-width:2.0;stroke:rgb(115,115,115);stroke-linecap:round;fill:rgb(116,196,118);"/>
<path d="M1077.969,2761.265 A1330.000,1330.000 40.000 0,1 1063.626,2756.375 L1057.064,2775.268 A1350.000,1350.000 0.000 0,0 1071.623,2780.232 Z" style="stroke-width:2.0;stroke:rgb(115,115,115);stroke-linecap:round;fill:none;"/>
<path d="M1044.140,2749.437 A1330.000,1330.000 40.000 0,1 1029.934,2744.162 L1022.866,2762.871 A1350.000,1350.000 0.000 0,0 1037.285,2768.225 Z" style="stroke-width:2.0;stroke:rgb(115,115,115);stroke-linecap:round;fill:rgb(116,196,118);"/>
<path d="M1044.140,2749.437 A1330.000,1330.000 40.000 0,1 1029.934,2744.162 L1022.866,2762.871 A1350.000,1350.000 0.000 0,0 1037.285,2768.225 Z" style="stroke-width:2.0;stroke:rgb(115,115,115);stroke-linecap:round;fill:none;"/>
<path d="M1010.642,2736.701 A1330.000,1330.000 40.000 0,1 996.584,2731.045 L989.014,2749.557 A1350.000,1350.000 0.000 0,0 1003.284,2755.298 Z" style="stroke-width:2.0;stroke:rgb(115,115,115);stroke-linecap:round;fill:rgb(116,196,118);"/>
<path d="M1010.642,2736.701 A1330.000,1330.000 40.000 0,1 996.584,2731.045 L989.014,2749.557 A1350.000,1350.000 0.000 0,0 1003.284,2755.298 Z" style="stroke-width:2.0;stroke:rgb(115,115,115);stroke-linecap:round;fill:none;"/>
<path d="M977.500,2723.067 A1330.000,1330.000 40.000 0,1 963.599,2717.035 L955.532,2735.336 A1350.000,1350.000 0.000 0,0 969.643,2741.459 Z" style="stroke-width:2.0;stroke:rgb(115,115,115);stroke-linecap:round;fill:rgb(116,196,118);"/>
<path d="M977.500,2723.067 A1330.000,1330.000 40.000 0,1 963.599,2717.035 L955.532,2735.336 A1350.000,1350.000 0.000 0,0 969.643,2741.459 Z" style="stroke-width:2.0;stroke:rgb(115,115,115);stroke-linecap:round;fill:none;"/>
<path d="M944.736,2708.546 A1330.000,1330.000 40.000 0,1 931.003,2702.141 L922.447,2720.218 A1350.000,1350.000 0.000 0,0 936.387,2726.719 Z" style="stroke-width:2.0;stroke:rgb(115,115,115);stroke-linecap:round;fill:rgb(116,196,118);"/>
<path d="M944.736,2708.546 A1330.000,1330.000 40.000 0,1 931.003,2702.141 L922.447,2720.218 A1350.000,1350.000 0.000 0,0 936.387,2726.719 Z" style="stroke-width:2.0;stroke:rgb(115,115,115);stroke-linecap:round;fill:none;"/>
<path d="M912.376,2693.146 A1330.000,1330.000 40.000 0,1 898.820,2686.374 L889.780,2704.214 A1350.000,1350.000 0.000 0,0 903.540,2711.088 Z" style="stroke-width:2.0;stroke:rgb(115,115,115);stroke-linecap:round;fill:rgb(116,196,118);"/>
<path d="M912.376,2693.146 A1330.000,1330.000 40.000 0,1 898.820,2686.374 L889.780,2704.214 A1350.000,1350.000 0.000 0,0 903.540,2711.088 Z" style="stroke-width:2.0;stroke:rgb(115,115,115);stroke-linecap:round;fill:none;"/>
<path d="M880.443,2676.881 A1330.000,1330.000 40.000 0,1 867.074,2669.746 L857.556,2687.336 A1350.000,1350.000 0.000 0,0 871.126,2694.578 Z" style="stroke-width:2.0;stroke:rgb(115,115,115);stroke-linecap:round;fill:rgb(116,196,118);"/>
<path d="M880.443,2676.881 A1330.000,1330.000 40.000 0,1 867.074,2669.746 L857.556,2687.336 A1350.000,1350.000 0.000 0,0 871.126,2694.578 Z" style="stroke-width:2.0;stroke:rgb(115,115,115);stroke-linecap:round;fill:none;"/>
<path d="M848.959,2659.761 A1330.000,1330.000 40.000 0,1 835.788,2652.268 L825.799,2669.595 A1350.000,1350.000 0.000 0,0 839.169,2677.201 Z" style="stroke-width:2.0;stroke:rgb(115,115,115);stroke-linecap:round;fill:rgb(116,196,118);"/>
<path d="M848.959,2659.761 A1330.000,1330.000 40.000 0,1 835.788,2652.268 L825.799,2669.595 A1350.000,1350.000 0.000 0,0 839.169,2677.201 Z" style="stroke-width:2.0;stroke:rgb(115,115,115);stroke-linecap:round;fill:none;"/>
<path d="M817.948,2641.799 A1330.000,1330.000 40.000 0,1 804.983,2633.954 L794.532,2651.006 A1350.000,1350.000 0.000 0,0 807.692,2658.969 Z" style="stroke-width:2.0;stroke:rgb(115,115,115);stroke-linecap:round;fill:rgb(116,196,118);"/>
<path d="M817.948,2641.799 A1330.000,1330.000 40.000 0,1 804.983,2633.954 L794.532,2651.006 A1350.000,1350.000 0.000 0,0 807.692,2658.969 Z" style="stroke-width:2.0;stroke:rgb(115,115,115);stroke-linecap:round;fill:none;"/>
<path d="M787.432,2623.008 A1330.000,1330.000 40.000 0,1 777.862,2616.878 L767.003,2633.673 A1350.000,1350.000 0.000 0,0 776.717,2639.895 Z" style="stroke-width:2.0;stroke:rgb(115,115,115);stroke-linecap:round;fill:rgb(116,196,118);"/>
<path d="M787.432,2623.008 A1330.000,1330.000 40.000 0,1 777.862,2616.878 L767.003,2633.673 A1350.000,1350.000 0.000 0,0 776.717,2639.895 Z" style="stroke-width:2.0;stroke:rgb(115,115,115);stroke-linecap:round;fill:none;"/>
<path d="M760.580,2605.512 A1330.000,1330.000 40.000 0,1 751.160,2599.154 L739.899,2615.682 A1350.000,1350.000 0.000 0,0 749.461,2622.137 Z" style="stroke-width:2.0;stroke:rgb(115,115,115);stroke-linecap:round;fill:rgb(116,196,118);"/>
<path d="M760.580,2605.512 A1330.000,1330.000 40.000 0,1 751.160,2599.154 L739.899,2615.682 A1350.000,1350.000 0.000 0,0 749.461,2622.137 Z" style="stroke-width:2.0;stroke:rgb(115,115,115);stroke-linecap:round;fill:none;"/>
<path d="M734.157,2587.375 A1330.000,1330.000 40.000 0,1 724.893,2580.791 L713.237,2597.043 A1350.000,1350.000 0.000 0,0 722.640,2603.726 Z" style="stroke-width:2.0;stroke:rgb(115,115,115);stroke-linecap:round;fill:rgb(116,196,118);"/>
<path d="M734.157,2587.375 A1330.000,1330.000 40.000 0,1 724.893,2580.791 L713.237,2597.043 A1350.000,1350.000 0.000 0,0 722.640,2603.726 Z" style="stroke-width:2.0;stroke:rgb(115,115,115);stroke-linecap:round;fill:none;"/>
<path d="M708.178,2568.606 A1330.000,1330.000 40.000 0,1 699.076,2561.801 L687.032,2577.767 A1350.000,1350.000 0.000 0,0 696.271,2584.675 Z" style="stroke-width:2.0;stroke:rgb(115,115,115);stroke-linecap:round;fill:rgb(116,196,118);"/>
<path d="M708.178,2568.606 A1330.000,1330.000 40.000 0,1 699.076,2561.801 L687.032,2577.767 A1350.000,1350.000 0.000 0,0 696.271,2584.675 Z" style="stroke-width:2.0;stroke:rgb(115,115,115);stroke-linecap:round;fill:none;"/>
<path d="M682.660,2549.216 A1330.000,1330.000 40.000 0,1 673.724,2542.194 L661.299,2557.866 A1350.000,1350.000 0.000 0,0 670.369,2564.994 Z" style="stroke-width:2.0;stroke:rgb(115,115,115);stroke-linecap:round;fill:rgb(116,196,118);"/>
<path d="M682.660,2549.216 A1330.000,1330.000 40.000 0,1 673.724,2542.194 L661.299,2557.866 A1350.000,1350.000 0.000 0,0 670.369,2564.994 Z" style="stroke-width:2.0;stroke:rgb(115,115,115);stroke-linecap:round;fill:none;"/>
<path d="M657.616,2529.218 A1330.000,1330.000 40.000 0,1 648.852,2521.982 L636.052,2537.350 A1350.000,1350.000 0.000 0,0 644.948,2544.695 Z" style="stroke-width:2.0;stroke:rgb(115,115,115);stroke-linecap:round;fill:rgb(116,196,118);"/>
<path d="M657.616,2529.218 A1330.000,1330.000 40.000 0,1 648.852,2521.982 L636.052,2537.350 A1350.000,1350.000 0.000 0,0 644.948,2544.695 Z" style="stroke-width:2.0;stroke:rgb(115,115,115);stroke-linecap:round;fill:none;"/>
<path d="M633.061,2508.621 A1330.000,1330.000 40.000 0,1 624.474,2501.176 L611.308,2516.231 A1350.000,1350.000 0.000 0,0 620.024,2523.788 Z" style="stroke-width:2.0;stroke:rgb(115,115,115);stroke-linecap:round;fill:rgb(116,196,118);"/>
<path d="M633.061,2508.621 A1330.000,1330.000 40.000 0,1 624.474,2501.176 L611.308,2516.231 A1350.000,1350.000 0.000 0,0 620.024,2523.788 Z" style="stroke-width:2.0;stroke:rgb(115,115,115);stroke-linecap:round;fill:none;"/>
<path d="M609.009,2487.439 A1330.000,1330.000 40.000 0,1 600.604,2479.789 L587.079,2494.523 A1350.000,1350.000 0.000 0,0 595.611,2502.288 Z" style="stroke-width:2.0;stroke:rgb(115,115,115);stroke-linecap:round;fill:rgb(116,196,118);"/>
<path d="M609.009,2487.439 A1330.000,1330.000 40.000 0,1 600.604,2479.789 L587.079,2494.523 A1350.000,1350.000 0.000 0,0 595.611,2502.288 Z" style="stroke-width:2.0;stroke:rgb(115,115,115);stroke-linecap:round;fill:none;"/>
<path d="M585.475,2465.684 A1330.000,1330.000 40.000 0,1 577.257,2457.834 L563.381,2472.237 A1350.000,1350.000 0.000 0,0 571.723,2480.205 Z" style="stroke-width:2.0;stroke:rgb(115,115,115);stroke-linecap:round;fill:rgb(116,196,118);"/>
<path d="M585.475,2465.684 A1330.000,1330.000 40.000 0,1 577.257,2457.834 L563.381,2472.237 A1350.000,1350.000 0.000 0,0 571.723,2480.205 Z" style="stroke-width:2.0;stroke:rgb(115,115,115);stroke-linecap:round;fill:none;"/>
<path d="M562.472,2443.367 A1330.000,1330.000 40.000 0,1 554.445,2435.322 L540.227,2449.387 A1350.000,1350.000 0.000 0,0 548.374,2457.553 Z" style="stroke-width:2.0;stroke:rgb(115,115,115);stroke-linecap:round;fill:rgb(116,196,118);"/>
<path d="M562.472,2443.367 A1330.000,1330.000 40.000 0,1 554.445,2435.322 L540.227,2449.387 A1350.000,1350.000 0.000 0,0 548.374,2457.553 Z" style="stroke-width:2.0;stroke:rgb(115,115,115);stroke-linecap:round;fill:none;"/>
<path d="M540.014,2420.503 A1330.000,1330.000 40.000 0,1 532.183,2412.267 L517.629,2425.985 A1350.000,1350.000 0.000 0,0 525.578,2434.346 Z" style="stroke-width:2.0;stroke:rgb(115,115,115);stroke-linecap:round;fill:rgb(116,196,118);"/>
<path d="M540.014,2420.503 A1330.000,1330.000 40.000 0,1 532.183,2412.267 L517.629,2425.985 A1350.000,1350.000 0.000 0,0 525.578,2434.346 Z" style="stroke-width:2.0;stroke:rgb(115,115,115);stroke-linecap:round;fill:none;"/>
<path d="M518.113,2397.105 A1330.000,1330.000 40.000 0,1 510.483,2388.682 L495.603,2402.045 A1350.000,1350.000 0.000 0,0 503.347,2410.595 Z" style="stroke-width:2.0;stroke:rgb(115,115,115);stroke-linecap:round;fill:rgb(116,196,118);"/>
<path d="M518.113,2397.105 A1330.000,1330.000 40.000 0,1 510.483,2388.682 L495.603,2402.045 A1350.000,1350.000 0.000 0,0 503.347,2410.595 Z" style="stroke-width:2.0;stroke:rgb(115,115,115);stroke-linecap:round;fill:none;"/>
<path d="M496.782,2373.185 A1330.000,1330.000 40.000 0,1 489.357,2364.581 L474.159,2377.582 A1350.000,1350.000 0.000 0,0 481.696,2386.316 Z" style="stroke-width:2.0;stroke:rgb(115,115,115);stroke-linecap:round;fill:rgb(116,196,118);"/>
<path d="M496.782,2373.185 A1330.000,1330.000 40.000 0,1 489.357,2364.581 L474.159,2377.582 A1350.000,1350.000 0.000 0,0 481.696,2386.316 Z" style="stroke-width:2.0;stroke:rgb(115,115,115);stroke-linecap:round;fill:none;"/>
<path d="M476.033,2348.759 A1330.000,1330.000 40.000 0,1 468.818,2339.978 L453.311,2352.609 A1350.000,1350.000 0.000 0,0 460.635,2361.522 Z" style="stroke-width:2.0;stroke:rgb(115,115,115);stroke-linecap:round;fill:rgb(116,196,118);"/>
<path d="M476.033,2348.759 A1330.000,1330.000 40.000 0,1 468.818,2339.978 L453.311,2352.609 A1350.000,1350.000 0.000 0,0 460.635,2361.522 Z" style="stroke-width:2.0;stroke:rgb(115,115,115);stroke-linecap:round;fill:none;"/>
<path d="M455.879,2323.840 A1330.000,1330.000 40.000 0,1 448.877,2314.887 L433.071,2327.141 A1350.000,1350.000 0.000 0,0 440.178,2336.228 Z" style="stroke-width:2.0;stroke:rgb(115,115,115);stroke-linecap:round;fill:rgb(116,196,118);"/>
<path d="M455.879,2323.840 A1330.000,1330.000 40.000 0,1 448.877,2314.887 L433.071,2327.141 A1350.000,1350.000 0.000 0,0 440.178,2336.228 Z" style="stroke-width:2.0;stroke:rgb(115,115,115);stroke-linecap:round;fill:none;"/>
<path d="M436.332,2298.442 A1330.000,1330.000 40.000 0,1 429.548,2289.324 L413.451,2301.193 A1350.000,1350.000 0.000 0,0 420.337,2310.449 Z" style="stroke-width:2.0;stroke:rgb(115,115,115);stroke-linecap:round;fill:rgb(116,196,118);"/>
<path d="M436.332,2298.442 A1330.000,1330.000 40.000 0,1 429.548,2289.324 L413.451,2301.193 A1350.000,1350.000 0.000 0,0 420.337,2310.449 Z" style="stroke-width:2.0;stroke:rgb(115,115,115);stroke-linecap:round;fill:none;"/>
<path d="M417.402,2272.581 A1330.000,1330.000 40.000 0,1 410.839,2263.301 L394.461,2274.780 A1350.000,1350.000 0.000 0,0 401.122,2284.198 Z" style="stroke-width:2.0;stroke:rgb(115,115,115);stroke-linecap:round;fill:rgb(116,196,118);"/>
<path d="M417.402,2272.581 A1330.000,1330.000 40.000 0,1 410.839,2263.301 L394.461,2274.780 A1350.000,1350.000 0.000 0,0 401.122,2284.198 Z" style="stroke-width:2.0;stroke:rgb(115,115,115);stroke-linecap:round;fill:none;"/>
<path d="M399.100,2246.271 A1330.000,1330.000 40.000 0,1 392.763,2236.836 L376.113,2247.916 A1350.000,1350.000 0.000 0,0 382.545,2257.493 Z" style="stroke-width:2.0;stroke:rgb(115,115,115);stroke-linecap:round;fill:rgb(116,196,118);"/>
<path d="M399.100,2246.271 A1330.000,1330.000 40.000 0,1 392.763,2236.836 L376.113,2247.916 A1350.000,1350.000 0.000 0,0 382.545,2257.493 Z" style="stroke-width:2.0;stroke:rgb(115,115,115);stroke-linecap:round;fill:none;"/>
<path d="M381.438,2219.527 A1330.000,1330.000 40.000 0,1 375.331,2209.943 L358.418,2220.619 A1350.000,1350.000 0.000 0,0 364.618,2230.347 Z" style="stroke-width:2.0;stroke:rgb(115,115,115);stroke-linecap:round;fill:rgb(116,196,118);"/>
<path d="M381.438,2219.527 A1330.000,1330.000 40.000 0,1 375.331,2209.943 L358.418,2220.619 A1350.000,1350.000 0.000 0,0 364.618,2230.347 Z" style="stroke-width:2.0;stroke:rgb(115,115,115);stroke-linecap:round;fill:none;"/>
<path d="M364.426,2192.366 A1330.000,1330.000 40.000 0,1 358.551,2182.637 L341.386,2192.903 A1350.000,1350.000 0.000 0,0 347.349,2202.778 Z" style="stroke-width:2.0;stroke:rgb(115,115,115);stroke-linecap:round;fill:rgb(116,196,118);"/>
<path d="M364.426,2192.366 A1330.000,1330.000 40.000 0,1 358.551,2182.637 L341.386,2192.903 A1350.000,1350.000 0.000 0,0 347.349,2202.778 Z" style="stroke-width:2.0;stroke:rgb(115,115,115);stroke-linecap:round;fill:none;"/>
<path d="M348.073,2164.803 A1330.000,1330.000 40.000 0,1 342.434,2154.935 L325.027,2164.784 A1350.000,1350.000 0.000 0,0 330.750,2174.800 Z" style="stroke-width:2.0;stroke:rgb(115,115,115);stroke-linecap:round;fill:rgb(116,196,118);"/>
<path d="M348.073,2164.803 A1330.000,1330.000 40.000 0,1 342.434,2154.935 L325.027,2164.784 A1350.000,1350.000 0.000 0,0 330.750,2174.800 Z" style="stroke-width:2.0;stroke:rgb(115,115,115);stroke-linecap:round;fill:none;"/>
<path d="M332.388,2136.854 A1330.000,1330.000 40.000 0,1 326.989,2126.853 L309.350,2136.280 A1350.000,1350.000 0.000 0,0 314.830,2146.431 Z" style="stroke-width:2.0;stroke:rgb(115,115,115);stroke-linecap:round;fill:rgb(116,196,118);"/>
<path d="M332.388,2136.854 A1330.000,1330.000 40.000 0,1 326.989,2126.853 L309.350,2136.280 A1350.000,1350.000 0.000 0,0 314.830,2146.431 Z" style="stroke-width:2.0;stroke:rgb(115,115,115);stroke-linecap:round;fill:none;"/>
<path d="M317.382,2108.535 A1330.000,1330.000 40.000 0,1 312.225,2098.407 L294.364,2107.406 A1350.000,1350.000 0.000 0,0 299.598,2117.686 Z" style="stroke-width:2.0;stroke:rgb(115,115,115);stroke-linecap:round;fill:rgb(116,196,118);"/>
<path d="M317.382,2108.535 A1330.000,1330.000 40.000 0,1 312.225,2098.407 L294.364,2107.406 A1350.000,1350.000 0.000 0,0 299.598,2117.686 Z" style="stroke-width:2.0;stroke:rgb(115,115,115);stroke-linecap:round;fill:none;"/>
<path d="M303.063,2079.863 A1330.000,1330.000 40.000 0,1 298.151,2069.613 L280.078,2078.179 A1350.000,1350.000 0.000 0,0 285.063,2088.582 Z" style="stroke-width:2.0;stroke:rgb(115,115,115);stroke-linecap:round;fill:rgb(116,196,118);"/>
<path d="M303.063,2079.863 A1330.000,1330.000 40.000 0,1 298.151,2069.613 L280.078,2078.179 A1350.000,1350.000 0.000 0,0 285.063,2088.582 Z" style="stroke-width:2.0;stroke:rgb(115,115,115);stroke-linecap:round;fill:none;"/>
<path d="M289.438,2050.854 A1330.000,1330.000 40.000 0,1 284.775,2040.489 L266.501,2048.617 A1350.000,1350.000 0.000 0,0 271.234,2059.137 Z" style="stroke-width:2.0;stroke:rgb(115,115,115);stroke-linecap:round;fill:rgb(116,196,118);"/>
<path d="M289.438,2050.854 A1330.000,1330.000 40.000 0,1 284.775,2040.489 L266.501,2048.617 A1350.000,1350.000 0.000 0,0 271.234,2059.137 Z" style="stroke-width:2.0;stroke:rgb(115,115,115);stroke-linecap:round;fill:none;"/>
<path d="M276.516,2021.525 A1330.000,1330.000 40.000 0,1 272.105,2011.051 L253.640,2018.736 A1350.000,1350.000 0.000 0,0 258.118,2029.367 Z" style="stroke-width:2.0;stroke:rgb(115,115,115);stroke-linecap:round;fill:rgb(116,196,118);"/>
<path d="M276.516,2021.525 A1330.000,1330.000 40.000 0,1 272.105,2011.051 L253.640,2018.736 A1350.000,1350.000 0.000 0,0 258.118,2029.367 Z" style="stroke-width:2.0;stroke:rgb(115,115,115);stroke-linecap:round;fill:none;"/>
<path d="M264.305,1991.893 A1330.000,1330.000 40.000 0,1 260.147,1981.316 L241.503,1988.554 A1350.000,1350.000 0.000 0,0 245.723,1999.290 Z" style="stroke-width:2.0;stroke:rgb(115,115,115);stroke-linecap:round;fill:rgb(116,196,118);"/>
<path d="M264.305,1991.893 A1330.000,1330.000 40.000 0,1 260.147,1981.316 L241.503,1988.554 A1350.000,1350.000 0.000 0,0 245.723,1999.290 Z" style="stroke-width:2.0;stroke:rgb(115,115,115);stroke-linecap:round;fill:none;"/>
<path d="M252.812,1961.976 A1330.000,1330.000 40.000 0,1 250.200,1954.863 L231.406,1961.703 A1350.000,1350.000 0.000 0,0 234.057,1968.923 Z" style="stroke-width:2.0;stroke:rgb(115,115,115);stroke-linecap:round;fill:rgb(116,196,118);"/>
<path d="M252.812,1961.976 A1330.000,1330.000 40.000 0,1 250.200,1954.863 L231.406,1961.703 A1350.000,1350.000 0.000 0,0 234.057,1968.923 Z" style="stroke-width:2.0;stroke:rgb(115,115,115);stroke-linecap:round;fill:none;"/>
<path d="M243.277,1935.371 A1330.000,1330.000 40.000 0,1 240.818,1928.205 L221.882,1934.644 A1350.000,1350.000 0.000 0,0 224.379,1941.918 Z" style="stroke-width:2.0;stroke:rgb(115,115,115);stroke-linecap:round;fill:rgb(116,196,118);"/>
<path d="M243.277,1935.371 A1330.000,1330.000 40.000 0,1 240.818,1928.205 L221.882,1934.644 A1350.000,1350.000 0.000 0,0 224.379,1941.918 Z" style="stroke-width:2.0;stroke:rgb(115,115,115);stroke-linecap:round;fill:none;"/>
<path d="M234.310,1908.571 A1330.000,1330.000 40.000 0,1 232.003,1901.354 L212.936,1907.389 A1350.000,1350.000 0.000 0,0 215.278,1914.715 Z" style="stroke-width:2.0;stroke:rgb(115,115,115);stroke-linecap:round;fill:rgb(116,196,118);"/>
<path d="M234.310,1908.571 A1330.000,1330.000 40.000 0,1 232.003,1901.354 L212.936,1907.389 A1350.000,1350.000 0.000 0,0 215.278,1914.715 Z" style="stroke-width:2.0;stroke:rgb(115,115,115);stroke-linecap:round;fill:none;"/>
<path d="M225.915,1881.585 A1330.000,1330.000 40.000 0,1 223.762,1874.321 L204.570,1879.950 A1350.000,1350.000 0.000 0,0 206.756,1887.324 Z" style="stroke-width:2.0;stroke:rgb(115,115,115);stroke-linecap:round;fill:rgb(116,196,118);"/>
<path d="M225.915,1881.585 A1330.000,1330.000 40.000 0,1 223.762,1874.321 L204.570,1879.950 A1350.000,1350.000 0.000 0,0 206.756,1887.324 Z" style="stroke-width:2.0;stroke:rgb(115,115,115);stroke-linecap:round;fill:none;"/>
<path d="M218.095,1854.428 A1330.000,1330.000 40.000 0,1 216.097,1847.119 L196.790,1852.339 A1350.000,1350.000 0.000 0,0 198.818,1859.758 Z" style="stroke-width:2.0;stroke:rgb(115,115,115);stroke-linecap:round;fill:rgb(116,196,118);"/>
<path d="M218.095,1854.428 A1330.000,1330.000 40.000 0,1 216.097,1847.119 L196.790,1852.339 A1350.000,1350.000 0.000 0,0 198.818,1859.758 Z" style="stroke-width:2.0;stroke:rgb(115,115,115);stroke-linecap:round;fill:none;"/>
<path d="M210.853,1827.110 A1330.000,1330.000 40.000 0,1 209.011,1819.761 L189.598,1824.569 A1350.000,1350.000 0.000 0,0 191.468,1832.029 Z" style="stroke-width:2.0;stroke:rgb(115,115,115);stroke-linecap:round;fill:rgb(116,196,118);"/>
<path d="M210.853,1827.110 A1330.000,1330.000 40.000 0,1 209.011,1819.761 L189.598,1824.569 A1350.000,1350.000 0.000 0,0 191.468,1832.029 Z" style="stroke-width:2.0;stroke:rgb(115,115,115);stroke-linecap:round;fill:none;"/>
<path d="M204.194,1799.645 A1330.000,1330.000 40.000 0,1 202.508,1792.258 L182.997,1796.653 A1350.000,1350.000 0.000 0,0 184.708,1804.151 Z" style="stroke-width:2.0;stroke:rgb(115,115,115);stroke-linecap:round;fill:rgb(116,196,118);"/>
<path d="M204.194,1799.645 A1330.000,1330.000 40.000 0,1 202.508,1792.258 L182.997,1796.653 A1350.000,1350.000 0.000 0,0 184.708,1804.151 Z" style="stroke-width:2.0;stroke:rgb(115,115,115);stroke-linecap:round;fill:none;"/>
<path d="M198.120,1772.045 A1330.000,1330.000 40.000 0,1 196.591,1764.624 L176.991,1768.603 A1350.000,1350.000 0.000 0,0 178.543,1776.135 Z" style="stroke-width:2.0;stroke:rgb(115,115,115);stroke-linecap:round;fill:rgb(116,196,118);"/>
<path d="M198.120,1772.045 A1330.000,1330.000 40.000 0,1 196.591,1764.624 L176.991,1768.603 A1350.000,1350.000 0.000 0,0 178.543,1776.135 Z" style="stroke-width:2.0;stroke:rgb(115,115,115);stroke-linecap:round;fill:none;"/>
<path d="M192.633,1744.321 A1330.000,1330.000 40.000 0,1 191.263,1736.869 L171.583,1740.431 A1350.000,1350.000 0.000 0,0 172.974,1747.995 Z" style="stroke-width:2.0;stroke:rgb(115,115,115);stroke-linecap:round;fill:rgb(116,196,118);"/>
<path d="M192.633,1744.321 A1330.000,1330.000 40.000 0,1 191.263,1736.869 L171.583,1740.431 A1350.000,1350.000 0.000 0,0 172.974,1747.995 Z" style="stroke-width:2.0;stroke:rgb(115,115,115);stroke-linecap:round;fill:none;"/>
<path d="M187.737,1716.487 A1330.000,1330.000 40.000 0,1 186.525,1709.008 L166.774,1712.151 A1350.000,1350.000 0.000 0,0 168.004,1719.743 Z" style="stroke-width:2.0;stroke:rgb(115,115,115);stroke-linecap:round;fill:rgb(116,196,118);"/>
<path d="M187.737,1716.487 A1330.000,1330.000 40.000 0,1 186.525,1709.008 L166.774,1712.151 A1350.000,1350.000 0.000 0,0 168.004,1719.743 Z" style="stroke-width:2.0;stroke:rgb(115,115,115);stroke-linecap:round;fill:none;"/>
<path d="M183.434,1688.556 A1330.000,1330.000 40.000 0,1 182.381,1681.053 L162.567,1683.775 A1350.000,1350.000 0.000 0,0 163.636,1691.391 Z" style="stroke-width:2.0;stroke:rgb(115,115,115);stroke-linecap:round;fill:rgb(116,196,118);"/>
<path d="M183.434,1688.556 A1330.000,1330.000 40.000 0,1 182.381,1681.053 L162.567,1683.775 A1350.000,1350.000 0.000 0,0 163.636,1691.391 Z" style="stroke-width:2.0;stroke:rgb(115,115,115);stroke-linecap:round;fill:none;"/>
<path d="M179.725,1660.539 A1330.000,1330.000 40.000 0,1 178.831,1653.015 L158.964,1655.316 A1350.000,1350.000 0.000 0,0 159.871,1662.954 Z" style="stroke-width:2.0;stroke:rgb(115,115,115);stroke-linecap:round;fill:rgb(116,196,118);"/>
<path d="M179.725,1660.539 A1330.000,1330.000 40.000 0,1 178.831,1653.015 L158.964,1655.316 A1350.000,1350.000 0.000 0,0 159.871,1662.954 Z" style="stroke-width:2.0;stroke:rgb(115,115,115);stroke-linecap:round;fill:none;"/>
<path d="M176.612,1632.450 A1330.000,1330.000 40.000 0,1 175.879,1624.909 L155.967,1626.787 A1350.000,1350.000 0.000 0,0 156.711,1634.442 Z" style="stroke-width:2.0;stroke:rgb(115,115,115);stroke-linecap:round;fill:rgb(116,196,118);"/>
<path d="M176.612,1632.450 A1330.000,1330.000 40.000 0,1 175.879,1624.909 L155.967,1626.787 A1350.000,1350.000 0.000 0,0 156.711,1634.442 Z" style="stroke-width:2.0;stroke:rgb(115,115,115);stroke-linecap:round;fill:none;"/>
<path d="M174.096,1604.302 A1330.000,1330.000 40.000 0,1 173.523,1596.746 L153.576,1598.201 A1350.000,1350.000 0.000 0,0 154.158,1605.870 Z" style="stroke-width:2.0;stroke:rgb(115,115,115);stroke-linecap:round;fill:rgb(116,196,118);"/>
<path d="M174.096,1604.302 A1330.000,1330.000 40.000 0,1 173.523,1596.746 L153.576,1598.201 A1350.000,1350.000 0.000 0,0 154.158,1605.870 Z" style="stroke-width:2.0;stroke:rgb(115,115,115);stroke-linecap:round;fill:none;"/>
<path d="M172.179,1576.106 A1330.000,1330.000 40.000 0,1 171.767,1568.540 L151.794,1569.571 A1350.000,1350.000 0.000 0,0 152.212,1577.250 Z" style="stroke-width:2.0;stroke:rgb(115,115,115);stroke-linecap:round;fill:rgb(116,196,118);"/>
<path d="M172.179,1576.106 A1330.000,1330.000 40.000 0,1 171.767,1568.540 L151.794,1569.571 A1350.000,1350.000 0.000 0,0 152.212,1577.250 Z" style="stroke-width:2.0;stroke:rgb(115,115,115);stroke-linecap:round;fill:none;"/>
<path d="M170.862,1547.875 A1330.000,1330.000 40.000 0,1 170.611,1540.303 L150.620,1540.909 A1350.000,1350.000 0.000 0,0 150.875,1548.595 Z" style="stroke-width:2.0;stroke:rgb(115,115,115);stroke-linecap:round;fill:rgb(116,196,118);"/>
<path d="M170.862,1547.875 A1330.000,1330.000 40.000 0,1 170.611,1540.303 L150.620,1540.909 A1350.000,1350.000 0.000 0,0 150.875,1548.595 Z" style="stroke-width:2.0;stroke:rgb(115,115,115);stroke-linecap:round;fill:none;"/>
<path d="M170.145,1519.623 A1330.000,1330.000 40.000 0,1 170.055,1512.047 L150.055,1512.228 A1350.000,1350.000 0.000 0,0 150.147,1519.918 Z" style="stroke-width:2.0;stroke:rgb(115,115,115);stroke-linecap:round;fill:rgb(116,196,118);"/>
<path d="M170.145,1519.623 A1330.000,1330.000 40.000 0,1 170.055,1512.047 L150.055,1512.228 A1350.000,1350.000 0.000 0,0 150.147,1519.918 Z" style="stroke-width:2.0;stroke:rgb(115,115,115);stroke-linecap:round;fill:none;"/>
<path d="M170.028,1491.362 A1330.000,1330.000 40.000 0,1 170.099,1483.786 L150.100,1483.542 A1350.000,1350.000 0.000 0,0 150.028,1491.233 Z" style="stroke-width:2.0;stroke:rgb(115,115,115);stroke-linecap:round;fill:rgb(116,196,118);"/>
<path d="M170.028,1491.362 A1330.000,1330.000 40.000 0,1 170.099,1483.786 L150.100,1483.542 A1350.000,1350.000 0.000 0,0 150.028,1491.233 Z" style="stroke-width:2.0;stroke:rgb(115,115,115);stroke-linecap:round;fill:none;"/>
<path d="M170.512,1463.106 A1330.000,1330.000 40.000 0,1 170.744,1455.532 L150.755,1454.864 A1350.000,1350.000 0.000 0,0 150.520,1462.551 Z" style="stroke-width:2.0;stroke:rgb(115,115,115);stroke-linecap:round;fill:rgb(116,196,118);"/>
<path d="M170.512,1463.106 A1330.000,1330.000 40.000 0,1 170.744,1455.532 L150.755,1454.864 A1350.000,1350.000 0.000 0,0 150.520,1462.551 Z" style="stroke-width:2.0;stroke:rgb(115,115,115);stroke-linecap:round;fill:none;"/>
<path d="M171.596,1434.865 A1330.000,1330.000 40.000 0,1 171.989,1427.299 L152.018,1426.205 A1350.000,1350.000 0.000 0,0 151.620,1433.886 Z" style="stroke-width:2.0;stroke:rgb(115,115,115);stroke-linecap:round;fill:rgb(116,196,118);"/>
<path d="M171.596,1434.865 A1330.000,1330.000 40.000 0,1 171.989,1427.299 L152.018,1426.205 A1350.000,1350.000 0.000 0,0 151.620,1433.886 Z" style="stroke-width:2.0;stroke:rgb(115,115,115);stroke-linecap:round;fill:none;"/>
<path d="M173.280,1406.655 A1330.000,1330.000 40.000 0,1 173.833,1399.098 L153.891,1397.581 A1350.000,1350.000 0.000 0,0 153.329,1405.251 Z" style="stroke-width:2.0;stroke:rgb(115,115,115);stroke-linecap:round;fill:rgb(116,196,118);"/>
<path d="M173.280,1406.655 A1330.000,1330.000 40.000 0,1 173.833,1399.098 L153.891,1397.581 A1350.000,1350.000 0.000 0,0 153.329,1405.251 Z" style="stroke-width:2.0;stroke:rgb(115,115,115);stroke-linecap:round;fill:none;"/>
<path d="M175.563,1378.486 A1330.000,1330.000 40.000 0,1 176.276,1370.943 L156.371,1369.002 A1350.000,1350.000 0.000 0,0 155.646,1376.659 Z" style="stroke-width:2.0;stroke:rgb(115,115,115);stroke-linecap:round;fill:rgb(116,196,118);"/>
<path d="M175.563,1378.486 A1330.000,1330.000 40.000 0,1 176.276,1370.943 L156.371,1369.002 A1350.000,1350.000 0.000 0,0 155.646,1376.659 Z" style="stroke-width:2.0;stroke:rgb(115,115,115);stroke-linecap:round;fill:none;"/>
<path d="M178.444,1350.372 A1330.000,1330.000 40.000 0,1 179.317,1342.846 L159.458,1340.483 A1350.000,1350.000 0.000 0,0 158.571,1348.122 Z" style="stroke-width:2.0;stroke:rgb(115,115,115);stroke-linecap:round;fill:rgb(116,196,118);"/>
<path d="M178.444,1350.372 A1330.000,1330.000 40.000 0,1 179.317,1342.846 L159.458,1340.483 A1350.000,1350.000 0.000 0,0 158.571,1348.122 Z" style="stroke-width:2.0;stroke:rgb(115,115,115);stroke-linecap:round;fill:none;"/>
<path d="M181.921,1322.326 A1330.000,1330.000 40.000 0,1 182.955,1314.820 L163.150,1312.035 A1350.000,1350.000 0.000 0,0 162.100,1319.654 Z" style="stroke-width:2.0;stroke:rgb(115,115,115);stroke-linecap:round;fill:rgb(116,196,118);"/>
<path d="M181.921,1322.326 A1330.000,1330.000 40.000 0,1 182.955,1314.820 L163.150,1312.035 A1350.000,1350.000 0.000 0,0 162.100,1319.654 Z" style="stroke-width:2.0;stroke:rgb(115,115,115);stroke-linecap:round;fill:none;"/>
<path d="M185.994,1294.360 A1330.000,1330.000 40.000 0,1 187.187,1286.877 L167.445,1283.673 A1350.000,1350.000 0.000 0,0 166.234,1291.267 Z" style="stroke-width:2.0;stroke:rgb(115,115,115);stroke-linecap:round;fill:rgb(116,196,118);"/>
<path d="M185.994,1294.360 A1330.000,1330.000 40.000 0,1 187.187,1286.877 L167.445,1283.673 A1350.000,1350.000 0.000 0,0 166.234,1291.267 Z" style="stroke-width:2.0;stroke:rgb(115,115,115);stroke-linecap:round;fill:none;"/>
<path d="M190.660,1266.487 A1330.000,1330.000 40.000 0,1 192.011,1259.031 L172.342,1255.408 A1350.000,1350.000 0.000 0,0 170.971,1262.975 Z" style="stroke-width:2.0;stroke:rgb(115,115,115);stroke-linecap:round;fill:rgb(116,196,118);"/>
<path d="M190.660,1266.487 A1330.000,1330.000 40.000 0,1 192.011,1259.031 L172.342,1255.408 A1350.000,1350.000 0.000 0,0 170.971,1262.975 Z" style="stroke-width:2.0;stroke:rgb(115,115,115);stroke-linecap:round;fill:none;"/>
<path d="M195.917,1238.719 A1330.000,1330.000 40.000 0,1 197.427,1231.294 L177.839,1227.253 A1350.000,1350.000 0.000 0,0 176.307,1234.790 Z" style="stroke-width:2.0;stroke:rgb(115,115,115);stroke-linecap:round;fill:rgb(116,196,118);"/>
<path d="M195.917,1238.719 A1330.000,1330.000 40.000 0,1 197.427,1231.294 L177.839,1227.253 A1350.000,1350.000 0.000 0,0 176.307,1234.790 Z" style="stroke-width:2.0;stroke:rgb(115,115,115);stroke-linecap:round;fill:none;"/>
<path d="M201.763,1211.069 A1330.000,1330.000 40.000 0,1 203.430,1203.678 L183.933,1199.222 A1350.000,1350.000 0.000 0,0 182.241,1206.724 Z" style="stroke-width:2.0;stroke:rgb(115,115,115);stroke-linecap:round;fill:rgb(116,196,118);"/>
<path d="M201.763,1211.069 A1330.000,1330.000 40.000 0,1 203.430,1203.678 L183.933,1199.222 A1350.000,1350.000 0.000 0,0 182.241,1206.724 Z" style="stroke-width:2.0;stroke:rgb(115,115,115);stroke-linecap:round;fill:none;"/>
<path d="M208.195,1183.550 A1330.000,1330.000 40.000 0,1 210.019,1176.196 L190.621,1171.326 A1350.000,1350.000 0.000 0,0 188.770,1178.791 Z" style="stroke-width:2.0;stroke:rgb(115,115,115);stroke-linecap:round;fill:rgb(116,196,118);"/>
<path d="M208.195,1183.550 A1330.000,1330.000 40.000 0,1 210.019,1176.196 L190.621,1171.326 A1350.000,1350.000 0.000 0,0 188.770,1178.791 Z" style="stroke-width:2.0;stroke:rgb(115,115,115);stroke-linecap:round;fill:none;"/>
<path d="M215.211,1156.173 A1330.000,1330.000 40.000 0,1 217.190,1148.860 L197.900,1143.579 A1350.000,1350.000 0.000 0,0 195.891,1151.003 Z" style="stroke-width:2.0;stroke:rgb(115,115,115);stroke-linecap:round;fill:rgb(116,196,118);"/>
<path d="M215.211,1156.173 A1330.000,1330.000 40.000 0,1 217.190,1148.860 L197.900,1143.579 A1350.000,1350.000 0.000 0,0 195.891,1151.003 Z" style="stroke-width:2.0;stroke:rgb(115,115,115);stroke-linecap:round;fill:none;"/>
<path d="M222.806,1128.952 A1330.000,1330.000 40.000 0,1 223.869,1125.316 L204.679,1119.681 A1350.000,1350.000 0.000 0,0 203.601,1123.372 Z" style="stroke-width:2.0;stroke:rgb(115,115,115);stroke-linecap:round;fill:rgb(116,196,118);"/>
<path d="M222.806,1128.952 A1330.000,1330.000 40.000 0,1 223.869,1125.316 L204.679,1119.681 A1350.000,1350.000 0.000 0,0 203.601,1123.372 Z" style="stroke-width:2.0;stroke:rgb(115,115,115);stroke-linecap:round;fill:none;"/>
<path d="M229.850,1105.515 A1330.000,1330.000 40.000 0,1 230.979,1101.898 L211.896,1095.912 A1350.000,1350.000 0.000 0,0 210.750,1099.583 Z" style="stroke-width:2.0;stroke:rgb(115,115,115);stroke-linecap:round;fill:rgb(116,196,118);"/>
<path d="M229.850,1105.515 A1330.000,1330.000 40.000 0,1 230.979,1101.898 L211.896,1095.912 A1350.000,1350.000 0.000 0,0 210.750,1099.583 Z" style="stroke-width:2.0;stroke:rgb(115,115,115);stroke-linecap:round;fill:none;"/>
<path d="M237.323,1082.211 A1330.000,1330.000 40.000 0,1 238.519,1078.616 L219.549,1072.279 A1350.000,1350.000 0.000 0,0 218.336,1075.928 Z" style="stroke-width:2.0;stroke:rgb(115,115,115);stroke-linecap:round;fill:rgb(116,196,118);"/>
<path d="M237.323,1082.211 A1330.000,1330.000 40.000 0,1 238.519,1078.616 L219.549,1072.279 A1350.000,1350.000 0.000 0,0 218.336,1075.928 Z" style="stroke-width:2.0;stroke:rgb(115,115,115);stroke-linecap:round;fill:none;"/>
<path d="M245.224,1059.049 A1330.000,1330.000 40.000 0,1 246.485,1055.476 L227.636,1048.792 A1350.000,1350.000 0.000 0,0 226.356,1052.418 Z" style="stroke-width:2.0;stroke:rgb(115,115,115);stroke-linecap:round;fill:rgb(116,196,118);"/>
<path d="M245.224,1059.049 A1330.000,1330.000 40.000 0,1 246.485,1055.476 L227.636,1048.792 A1350.000,1350.000 0.000 0,0 226.356,1052.418 Z" style="stroke-width:2.0;stroke:rgb(115,115,115);stroke-linecap:round;fill:none;"/>
<path d="M253.550,1036.036 A1330.000,1330.000 40.000 0,1 254.877,1032.487 L236.153,1025.457 A1350.000,1350.000 0.000 0,0 234.807,1029.059 Z" style="stroke-width:2.0;stroke:rgb(115,115,115);stroke-linecap:round;fill:rgb(116,196,118);"/>
<path d="M253.550,1036.036 A1330.000,1330.000 40.000 0,1 254.877,1032.487 L236.153,1025.457 A1350.000,1350.000 0.000 0,0 234.807,1029.059 Z" style="stroke-width:2.0;stroke:rgb(115,115,115);stroke-linecap:round;fill:none;"/>
<path d="M262.298,1013.180 A1330.000,1330.000 40.000 0,1 263.690,1009.656 L245.099,1002.283 A1350.000,1350.000 0.000 0,0 243.686,1005.859 Z" style="stroke-width:2.0;stroke:rgb(115,115,115);stroke-linecap:round;fill:rgb(116,196,118);"/>
<path d="M262.298,1013.180 A1330.000,1330.000 40.000 0,1 263.690,1009.656 L245.099,1002.283 A1350.000,1350.000 0.000 0,0 243.686,1005.859 Z" style="stroke-width:2.0;stroke:rgb(115,115,115);stroke-linecap:round;fill:none;"/>
<path d="M271.465,990.489 A1330.000,1330.000 40.000 0,1 272.921,986.991 L254.469,979.277 A1350.000,1350.000 0.000 0,0 252.991,982.827 Z" style="stroke-width:2.0;stroke:rgb(115,115,115);stroke-linecap:round;fill:rgb(116,196,118);"/>
<path d="M271.465,990.489 A1330.000,1330.000 40.000 0,1 272.921,986.991 L254.469,979.277 A1350.000,1350.000 0.000 0,0 252.991,982.827 Z" style="stroke-width:2.0;stroke:rgb(115,115,115);stroke-linecap:round;fill:none;"/>
<path d="M281.048,967.970 A1330.000,1330.000 40.000 0,1 282.568,964.500 L264.261,956.447 A1350.000,1350.000 0.000 0,0 262.718,959.970 Z" style="stroke-width:2.0;stroke:rgb(115,115,115);stroke-linecap:round;fill:rgb(116,196,118);"/>
<path d="M281.048,967.970 A1330.000,1330.000 40.000 0,1 282.568,964.500 L264.261,956.447 A1350.000,1350.000 0.000 0,0 262.718,959.970 Z" style="stroke-width:2.0;stroke:rgb(115,115,115);stroke-linecap:round;fill:none;"/>
<path d="M291.044,945.632 A1330.000,1330.000 40.000 0,1 292.628,942.190 L274.472,933.802 A1350.000,1350.000 0.000 0,0 272.864,937.295 Z" style="stroke-width:2.0;stroke:rgb(115,115,115);stroke-linecap:round;fill:rgb(116,196,118);"/>
<path d="M291.044,945.632 A1330.000,1330.000 40.000 0,1 292.628,942.190 L274.472,933.802 A1350.000,1350.000 0.000 0,0 272.864,937.295 Z" style="stroke-width:2.0;stroke:rgb(115,115,115);stroke-linecap:round;fill:none;"/>
<path d="M301.449,923.481 A1330.000,1330.000 40.000 0,1 303.096,920.069 L285.097,911.348 A1350.000,1350.000 0.000 0,0 283.425,914.811 Z" style="stroke-width:2.0;stroke:rgb(115,115,115);stroke-linecap:round;fill:rgb(116,196,118);"/>
<path d="M301.449,923.481 A1330.000,1330.000 40.000 0,1 303.096,920.069 L285.097,911.348 A1350.000,1350.000 0.000 0,0 283.425,914.811 Z" style="stroke-width:2.0;stroke:rgb(115,115,115);stroke-linecap:round;fill:none;"/>
<path d="M312.259,901.525 A1330.000,1330.000 40.000 0,1 313.969,898.144 L296.134,889.094 A1350.000,1350.000 0.000 0,0 294.399,892.526 Z" style="stroke-width:2.0;stroke:rgb(115,115,115);stroke-linecap:round;fill:rgb(116,196,118);"/>
<path d="M312.259,901.525 A1330.000,1330.000 40.000 0,1 313.969,898.144 L296.134,889.094 A1350.000,1350.000 0.000 0,0 294.399,892.526 Z" style="stroke-width:2.0;stroke:rgb(115,115,115);stroke-linecap:round;fill:none;"/>
<path d="M323.472,879.772 A1330.000,1330.000 40.000 0,1 325.244,876.424 L307.578,867.047 A1350.000,1350.000 0.000 0,0 305.780,870.446 Z" style="stroke-width:2.0;stroke:rgb(115,115,115);stroke-linecap:round;fill:rgb(116,196,118);"/>
<path d="M323.472,879.772 A1330.000,1330.000 40.000 0,1 325.244,876.424 L307.578,867.047 A1350.000,1350.000 0.000 0,0 305.780,870.446 Z" style="stroke-width:2.0;stroke:rgb(115,115,115);stroke-linecap:round;fill:none;"/>
<path d="M335.083,858.229 A1330.000,1330.000 40.000 0,1 336.916,854.914 L319.426,845.213 A1350.000,1350.000 0.000 0,0 317.566,848.579 Z" style="stroke-width:2.0;stroke:rgb(115,115,115);stroke-linecap:round;fill:rgb(116,196,118);"/>
<path d="M335.083,858.229 A1330.000,1330.000 40.000 0,1 336.916,854.914 L319.426,845.213 A1350.000,1350.000 0.000 0,0 317.566,848.579 Z" style="stroke-width:2.0;stroke:rgb(115,115,115);stroke-linecap:round;fill:none;"/>
<path d="M347.089,836.904 A1330.000,1330.000 40.000 0,1 348.983,833.623 L331.674,823.602 A1350.000,1350.000 0.000 0,0 329.752,826.932 Z" style="stroke-width:2.0;stroke:rgb(115,115,115);stroke-linecap:round;fill:rgb(116,196,118);"/>
<path d="M347.089,836.904 A1330.000,1330.000 40.000 0,1 348.983,833.623 L331.674,823.602 A1350.000,1350.000 0.000 0,0 329.752,826.932 Z" style="stroke-width:2.0;stroke:rgb(115,115,115);stroke-linecap:round;fill:none;"/>
<path d="M359.485,815.803 A1330.000,1330.000 40.000 0,1 361.439,812.557 L344.317,802.219 A1350.000,1350.000 0.000 0,0 342.335,805.514 Z" style="stroke-width:2.0;stroke:rgb(115,115,115);stroke-linecap:round;fill:rgb(116,196,118);"/>
<path d="M359.485,815.803 A1330.000,1330.000 40.000 0,1 361.439,812.557 L344.317,802.219 A1350.000,1350.000 0.000 0,0 342.335,805.514 Z" style="stroke-width:2.0;stroke:rgb(115,115,115);stroke-linecap:round;fill:none;"/>
<path d="M372.267,794.933 A1330.000,1330.000 40.000 0,1 374.280,791.724 L357.352,781.073 A1350.000,1350.000 0.000 0,0 355.309,784.331 Z" style="stroke-width:2.0;stroke:rgb(115,115,115);stroke-linecap:round;fill:rgb(116,196,118);"/>
<path d="M372.267,794.933 A1330.000,1330.000 40.000 0,1 374.280,791.724 L357.352,781.073 A1350.000,1350.000 0.000 0,0 355.309,784.331 Z" style="stroke-width:2.0;stroke:rgb(115,115,115);stroke-linecap:round;fill:none;"/>
<path d="M385.431,774.303 A1330.000,1330.000 40.000 0,1 387.503,771.131 L370.774,760.170 A1350.000,1350.000 0.000 0,0 368.671,763.390 Z" style="stroke-width:2.0;stroke:rgb(115,115,115);stroke-linecap:round;fill:rgb(116,196,118);"/>
<path d="M385.431,774.303 A1330.000,1330.000 40.000 0,1 387.503,771.131 L370.774,760.170 A1350.000,1350.000 0.000 0,0 368.671,763.390 Z" style="stroke-width:2.0;stroke:rgb(115,115,115);stroke-linecap:round;fill:none;"/>
<path d="M398.973,753.917 A1330.000,1330.000 40.000 0,1 401.102,750.784 L384.578,739.518 A1350.000,1350.000 0.000 0,0 382.416,742.698 Z" style="stroke-width:2.0;stroke:rgb(115,115,115);stroke-linecap:round;fill:rgb(116,196,118);"/>
<path d="M398.973,753.917 A1330.000,1330.000 40.000 0,1 401.102,750.784 L384.578,739.518 A1350.000,1350.000 0.000 0,0 382.416,742.698 Z" style="stroke-width:2.0;stroke:rgb(115,115,115);stroke-linecap:round;fill:none;"/>
<path d="M412.887,733.785 A1330.000,1330.000 40.000 0,1 415.074,730.692 L398.759,719.123 A1350.000,1350.000 0.000 0,0 396.539,722.263 Z" style="stroke-width:2.0;stroke:rgb(115,115,115);stroke-linecap:round;fill:rgb(116,196,118);"/>
<path d="M412.887,733.785 A1330.000,1330.000 40.000 0,1 415.074,730.692 L398.759,719.123 A1350.000,1350.000 0.000 0,0 396.539,722.263 Z" style="stroke-width:2.0;stroke:rgb(115,115,115);stroke-linecap:round;fill:none;"/>
<path d="M427.169,713.912 A1330.000,1330.000 40.000 0,1 429.413,710.859 L413.314,698.993 A1350.000,1350.000 0.000 0,0 411.036,702.091 Z" style="stroke-width:2.0;stroke:rgb(115,115,115);stroke-linecap:round;fill:rgb(116,196,118);"/>
<path d="M427.169,713.912 A1330.000,1330.000 40.000 0,1 429.413,710.859 L413.314,698.993 A1350.000,1350.000 0.000 0,0 411.036,702.091 Z" style="stroke-width:2.0;stroke:rgb(115,115,115);stroke-linecap:round;fill:none;"/>
<path d="M441.815,694.305 A1330.000,1330.000 40.000 0,1 444.114,691.294 L428.236,679.133 A1350.000,1350.000 0.000 0,0 425.902,682.190 Z" style="stroke-width:2.0;stroke:rgb(115,115,115);stroke-linecap:round;fill:rgb(116,196,118);"/>
<path d="M441.815,694.305 A1330.000,1330.000 40.000 0,1 444.114,691.294 L428.236,679.133 A1350.000,1350.000 0.000 0,0 425.902,682.190 Z" style="stroke-width:2.0;stroke:rgb(115,115,115);stroke-linecap:round;fill:none;"/>
<path d="M456.819,674.971 A1330.000,1330.000 40.000 0,1 459.173,672.003 L443.521,659.552 A1350.000,1350.000 0.000 0,0 441.132,662.565 Z" style="stroke-width:2.0;stroke:rgb(115,115,115);stroke-linecap:round;fill:rgb(116,196,118);"/>
<path d="M456.819,674.971 A1330.000,1330.000 40.000 0,1 459.173,672.003 L443.521,659.552 A1350.000,1350.000 0.000 0,0 441.132,662.565 Z" style="stroke-width:2.0;stroke:rgb(115,115,115);stroke-linecap:round;fill:none;"/>
<path d="M472.176,655.917 A1330.000,1330.000 40.000 0,1 474.584,652.992 L459.164,640.255 A1350.000,1350.000 0.000 0,0 456.720,643.224 Z" style="stroke-width:2.0;stroke:rgb(115,115,115);stroke-linecap:round;fill:rgb(116,196,118);"/>
<path d="M472.176,655.917 A1330.000,1330.000 40.000 0,1 474.584,652.992 L459.164,640.255 A1350.000,1350.000 0.000 0,0 456.720,643.224 Z" style="stroke-width:2.0;stroke:rgb(115,115,115);stroke-linecap:round;fill:none;"/>
<path d="M487.881,637.148 A1330.000,1330.000 40.000 0,1 490.342,634.268 L475.160,621.250 A1350.000,1350.000 0.000 0,0 472.661,624.172 Z" style="stroke-width:2.0;stroke:rgb(115,115,115);stroke-linecap:round;fill:rgb(116,196,118);"/>
<path d="M487.881,637.148 A1330.000,1330.000 40.000 0,1 490.342,634.268 L475.160,621.250 A1350.000,1350.000 0.000 0,0 472.661,624.172 Z" style="stroke-width:2.0;stroke:rgb(115,115,115);stroke-linecap:round;fill:none;"/>
<path d="M503.928,618.671 A1330.000,1330.000 40.000 0,1 506.443,615.837 L491.502,602.542 A1350.000,1350.000 0.000 0,0 488.950,605.418 Z" style="stroke-width:2.0;stroke:rgb(115,115,115);stroke-linecap:round;fill:rgb(116,196,118);"/>
<path d="M503.928,618.671 A1330.000,1330.000 40.000 0,1 506.443,615.837 L491.502,602.542 A1350.000,1350.000 0.000 0,0 488.950,605.418 Z" style="stroke-width:2.0;stroke:rgb(115,115,115);stroke-linecap:round;fill:none;"/>
<path d="M520.313,600.493 A1330.000,1330.000 40.000 0,1 522.879,597.706 L508.186,584.137 A1350.000,1350.000 0.000 0,0 505.581,586.966 Z" style="stroke-width:2.0;stroke:rgb(115,115,115);stroke-linecap:round;fill:rgb(116,196,118);"/>
<path d="M520.313,600.493 A1330.000,1330.000 40.000 0,1 522.879,597.706 L508.186,584.137 A1350.000,1350.000 0.000 0,0 505.581,586.966 Z" style="stroke-width:2.0;stroke:rgb(115,115,115);stroke-linecap:round;fill:none;"/>
<path d="M537.030,582.619 A1330.000,1330.000 40.000 0,1 539.647,579.880 L525.205,566.043 A1350.000,1350.000 0.000 0,0 522.549,568.824 Z" style="stroke-width:2.0;stroke:rgb(115,115,115);stroke-linecap:round;fill:rgb(116,196,118);"/>
<path d="M537.030,582.619 A1330.000,1330.000 40.000 0,1 539.647,579.880 L525.205,566.043 A1350.000,1350.000 0.000 0,0 522.549,568.824 Z" style="stroke-width:2.0;stroke:rgb(115,115,115);stroke-linecap:round;fill:none;"/>
<path d="M554.072,565.056 A1330.000,1330.000 40.000 0,1 556.739,562.365 L542.555,548.265 A1350.000,1350.000 0.000 0,0 539.848,550.996 Z" style="stroke-width:2.0;stroke:rgb(115,115,115);stroke-linecap:round;fill:rgb(116,196,118);"/>
<path d="M554.072,565.056 A1330.000,1330.000 40.000 0,1 556.739,562.365 L542.555,548.265 A1350.000,1350.000 0.000 0,0 539.848,550.996 Z" style="stroke-width:2.0;stroke:rgb(115,115,115);stroke-linecap:round;fill:none;"/>
<path d="M571.435,547.809 A1330.000,1330.000 40.000 0,1 574.151,545.168 L560.229,530.809 A1350.000,1350.000 0.000 0,0 557.472,533.490 Z" style="stroke-width:2.0;stroke:rgb(115,115,115);stroke-linecap:round;fill:rgb(116,196,118);"/>
<path d="M571.435,547.809 A1330.000,1330.000 40.000 0,1 574.151,545.168 L560.229,530.809 A1350.000,1350.000 0.000 0,0 557.472,533.490 Z" style="stroke-width:2.0;stroke:rgb(115,115,115);stroke-linecap:round;fill:none;"/>
<path d="M589.113,530.885 A1330.000,1330.000 40.000 0,1 591.877,528.294 L578.221,513.682 A1350.000,1350.000 0.000 0,0 575.415,516.312 Z" style="stroke-width:2.0;stroke:rgb(115,115,115);stroke-linecap:round;fill:rgb(116,196,118);"/>
<path d="M589.113,530.885 A1330.000,1330.000 40.000 0,1 591.877,528.294 L578.221,513.682 A1350.000,1350.000 0.000 0,0 575.415,516.312 Z" style="stroke-width:2.0;stroke:rgb(115,115,115);stroke-linecap:round;fill:none;"/>
<path d="M607.099,514.289 A1330.000,1330.000 40.000 0,1 609.910,511.749 L596.525,496.888 A1350.000,1350.000 0.000 0,0 593.671,499.466 Z" style="stroke-width:2.0;stroke:rgb(115,115,115);stroke-linecap:round;fill:rgb(116,196,118);"/>
<path d="M607.099,514.289 A1330.000,1330.000 40.000 0,1 609.910,511.749 L596.525,496.888 A1350.000,1350.000 0.000 0,0 593.671,499.466 Z" style="stroke-width:2.0;stroke:rgb(115,115,115);stroke-linecap:round;fill:none;"/>
<path d="M625.387,498.026 A1330.000,1330.000 40.000 0,1 628.244,495.539 L615.135,480.434 A1350.000,1350.000 0.000 0,0 612.235,482.959 Z" style="stroke-width:2.0;stroke:rgb(115,115,115);stroke-linecap:round;fill:rgb(116,196,118);"/>
<path d="M625.387,498.026 A1330.000,1330.000 40.000 0,1 628.244,495.539 L615.135,480.434 A1350.000,1350.000 0.000 0,0 612.235,482.959 Z" style="stroke-width:2.0;stroke:rgb(115,115,115);stroke-linecap:round;fill:none;"/>
<path d="M643.971,482.103 A1330.000,1330.000 40.000 0,1 646.874,479.669 L634.045,464.326 A1350.000,1350.000 0.000 0,0 631.098,466.796 Z" style="stroke-width:2.0;stroke:rgb(115,115,115);stroke-linecap:round;fill:rgb(116,196,118);"/>
<path d="M643.971,482.103 A1330.000,1330.000 40.000 0,1 646.874,479.669 L634.045,464.326 A1350.000,1350.000 0.000 0,0 631.098,466.796 Z" style="stroke-width:2.0;stroke:rgb(115,115,115);stroke-linecap:round;fill:none;"/>
<path d="M662.845,466.525 A1330.000,1330.000 40.000 0,1 665.792,464.144 L653.248,448.567 A1350.000,1350.000 0.000 0,0 650.256,450.984 Z" style="stroke-width:2.0;stroke:rgb(115,115,115);stroke-linecap:round;fill:rgb(116,196,118);"/>
<path d="M662.845,466.525 A1330.000,1330.000 40.000 0,1 665.792,464.144 L653.248,448.567 A1350.000,1350.000 0.000 0,0 650.256,450.984 Z" style="stroke-width:2.0;stroke:rgb(115,115,115);stroke-linecap:round;fill:none;"/>
<path d="M682.002,451.296 A1330.000,1330.000 40.000 0,1 684.993,448.970 L672.737,433.165 A1350.000,1350.000 0.000 0,0 669.702,435.526 Z" style="stroke-width:2.0;stroke:rgb(115,115,115);stroke-linecap:round;fill:rgb(116,196,118);"/>
<path d="M682.002,451.296 A1330.000,1330.000 40.000 0,1 684.993,448.970 L672.737,433.165 A1350.000,1350.000 0.000 0,0 669.702,435.526 Z" style="stroke-width:2.0;stroke:rgb(115,115,115);stroke-linecap:round;fill:none;"/>
<path d="M701.437,436.423 A1330.000,1330.000 40.000 0,1 704.470,434.152 L692.507,418.124 A1350.000,1350.000 0.000 0,0 689.428,420.429 Z" style="stroke-width:2.0;stroke:rgb(115,115,115);stroke-linecap:round;fill:rgb(116,196,118);"/>
<path d="M701.437,436.423 A1330.000,1330.000 40.000 0,1 704.470,434.152 L692.507,418.124 A1350.000,1350.000 0.000 0,0 689.428,420.429 Z" style="stroke-width:2.0;stroke:rgb(115,115,115);stroke-linecap:round;fill:none;"/>
<path d="M721.142,421.909 A1330.000,1330.000 40.000 0,1 724.216,419.695 L712.550,403.450 A1350.000,1350.000 0.000 0,0 709.430,405.697 Z" style="stroke-width:2.0;stroke:rgb(115,115,115);stroke-linecap:round;fill:rgb(116,196,118);"/>
<path d="M721.142,421.909 A1330.000,1330.000 40.000 0,1 724.216,419.695 L712.550,403.450 A1350.000,1350.000 0.000 0,0 709.430,405.697 Z" style="stroke-width:2.0;stroke:rgb(115,115,115);stroke-linecap:round;fill:none;"/>
<path d="M741.110,407.761 A1330.000,1330.000 40.000 0,1 744.224,405.604 L732.859,389.147 A1350.000,1350.000 0.000 0,0 729.698,391.336 Z" style="stroke-width:2.0;stroke:rgb(115,115,115);stroke-linecap:round;fill:rgb(116,196,118);"/>
<path d="M741.110,407.761 A1330.000,1330.000 40.000 0,1 744.224,405.604 L732.859,389.147 A1350.000,1350.000 0.000 0,0 729.698,391.336 Z" style="stroke-width:2.0;stroke:rgb(115,115,115);stroke-linecap:round;fill:none;"/>
<path d="M761.336,393.982 A1330.000,1330.000 40.000 0,1 764.489,391.883 L753.429,375.219 A1350.000,1350.000 0.000 0,0 750.228,377.350 Z" style="stroke-width:2.0;stroke:rgb(115,115,115);stroke-linecap:round;fill:rgb(116,196,118);"/>
<path d="M761.336,393.982 A1330.000,1330.000 40.000 0,1 764.489,391.883 L753.429,375.219 A1350.000,1350.000 0.000 0,0 750.228,377.350 Z" style="stroke-width:2.0;stroke:rgb(115,115,115);stroke-linecap:round;fill:none;"/>
<path d="M781.811,380.578 A1330.000,1330.000 40.000 0,1 785.003,378.537 L774.251,361.673 A1350.000,1350.000 0.000 0,0 771.011,363.745 Z" style="stroke-width:2.0;stroke:rgb(115,115,115);stroke-linecap:round;fill:rgb(116,196,118);"/>
<path d="M781.811,380.578 A1330.000,1330.000 40.000 0,1 785.003,378.537 L774.251,361.673 A1350.000,1350.000 0.000 0,0 771.011,363.745 Z" style="stroke-width:2.0;stroke:rgb(115,115,115);stroke-linecap:round;fill:none;"/>
<path d="M802.530,367.553 A1330.000,1330.000 40.000 0,1 805.759,365.571 L795.319,348.512 A1350.000,1350.000 0.000 0,0 792.042,350.524 Z" style="stroke-width:2.0;stroke:rgb(115,115,115);stroke-linecap:round;fill:rgb(116,196,118);"/>
<path d="M802.530,367.553 A1330.000,1330.000 40.000 0,1 805.759,365.571 L795.319,348.512 A1350.000,1350.000 0.000 0,0 792.042,350.524 Z" style="stroke-width:2.0;stroke:rgb(115,115,115);stroke-linecap:round;fill:none;"/>
<path d="M823.485,354.912 A1330.000,1330.000 40.000 0,1 826.749,352.989 L816.625,335.741 A1350.000,1350.000 0.000 0,0 813.312,337.692 Z" style="stroke-width:2.0;stroke:rgb(115,115,115);stroke-linecap:round;fill:rgb(116,196,118);"/>
<path d="M823.485,354.912 A1330.000,1330.000 40.000 0,1 826.749,352.989 L816.625,335.741 A1350.000,1350.000 0.000 0,0 813.312,337.692 Z" style="stroke-width:2.0;stroke:rgb(115,115,115);stroke-linecap:round;fill:none;"/>
<path d="M844.669,342.658 A1330.000,1330.000 40.000 0,1 847.968,340.796 L838.163,323.364 A1350.000,1350.000 0.000 0,0 834.814,325.254 Z" style="stroke-width:2.0;stroke:rgb(115,115,115);stroke-linecap:round;fill:rgb(116,196,118);"/>
<path d="M844.669,342.658 A1330.000,1330.000 40.000 0,1 847.968,340.796 L838.163,323.364 A1350.000,1350.000 0.000 0,0 834.814,325.254 Z" style="stroke-width:2.0;stroke:rgb(115,115,115);stroke-linecap:round;fill:none;"/>
<path d="M866.075,330.796 A1330.000,1330.000 40.000 0,1 869.408,328.995 L859.925,311.386 A1350.000,1350.000 0.000 0,0 856.542,313.214 Z" style="stroke-width:2.0;stroke:rgb(115,115,115);stroke-linecap:round;fill:rgb(116,196,118);"/>
<path d="M866.075,330.796 A1330.000,1330.000 40.000 0,1 869.408,328.995 L859.925,311.386 A1350.000,1350.000 0.000 0,0 856.542,313.214 Z" style="stroke-width:2.0;stroke:rgb(115,115,115);stroke-linecap:round;fill:none;"/>
<path d="M887.695,319.329 A1330.000,1330.000 40.000 0,1 891.061,317.590 L881.904,299.810 A1350.000,1350.000 0.000 0,0 878.488,301.575 Z" style="stroke-width:2.0;stroke:rgb(115,115,115);stroke-linecap:round;fill:rgb(116,196,118);"/>
<path d="M887.695,319.329 A1330.000,1330.000 40.000 0,1 891.061,317.590 L881.904,299.810 A1350.000,1350.000 0.000 0,0 878.488,301.575 Z" style="stroke-width:2.0;stroke:rgb(115,115,115);stroke-linecap:round;fill:none;"/>
<path d="M909.523,308.263 A1330.000,1330.000 40.000 0,1 912.920,306.586 L904.092,288.640 A1350.000,1350.000 0.000 0,0 900.644,290.342 Z" style="stroke-width:2.0;stroke:rgb(115,115,115);stroke-linecap:round;fill:rgb(116,196,118);"/>
<path d="M909.523,308.263 A1330.000,1330.000 40.000 0,1 912.920,306.586 L904.092,288.640 A1350.000,1350.000 0.000 0,0 900.644,290.342 Z" style="stroke-width:2.0;stroke:rgb(115,115,115);stroke-linecap:round;fill:none;"/>
<path d="M931.551,297.600 A1330.000,1330.000 40.000 0,1 934.978,295.986 L926.481,277.880 A1350.000,1350.000 0.000 0,0 923.003,279.519 Z" style="stroke-width:2.0;stroke:rgb(115,115,115);stroke-linecap:round;fill:rgb(116,196,118);"/>
<path d="M931.551,297.600 A1330.000,1330.000 40.000 0,1 934.978,295.986 L926.481,277.880 A1350.000,1350.000 0.000 0,0 923.003,279.519 Z" style="stroke-width:2.0;stroke:rgb(115,115,115);stroke-linecap:round;fill:none;"/>
<path d="M953.771,287.344 A1330.000,1330.000 40.000 0,1 957.227,285.793 L949.065,267.535 A1350.000,1350.000 0.000 0,0 945.557,269.109 Z" style="stroke-width:2.0;stroke:rgb(115,115,115);stroke-linecap:round;fill:rgb(116,196,118);"/>
<path d="M953.771,287.344 A1330.000,1330.000 40.000 0,1 957.227,285.793 L949.065,267.535 A1350.000,1350.000 0.000 0,0 945.557,269.109 Z" style="stroke-width:2.0;stroke:rgb(115,115,115);stroke-linecap:round;fill:none;"/>
<path d="M976.176,277.499 A1330.000,1330.000 40.000 0,1 979.660,276.012 L971.836,257.606 A1350.000,1350.000 0.000 0,0 968.299,259.116 Z" style="stroke-width:2.0;stroke:rgb(115,115,115);stroke-linecap:round;fill:rgb(116,196,118);"/>
<path d="M976.176,277.499 A1330.000,1330.000 40.000 0,1 979.660,276.012 L971.836,257.606 A1350.000,1350.000 0.000 0,0 968.299,259.116 Z" style="stroke-width:2.0;stroke:rgb(115,115,115);stroke-linecap:round;fill:none;"/>
<path d="M998.759,268.068 A1330.000,1330.000 40.000 0,1 1002.270,266.645 L994.785,248.098 A1350.000,1350.000 0.000 0,0 991.221,249.542 Z" style="stroke-width:2.0;stroke:rgb(115,115,115);stroke-linecap:round;fill:rgb(116,196,118);"/>
<path d="M998.759,268.068 A1330.000,1330.000 40.000 0,1 1002.270,266.645 L994.785,248.098 A1350.000,1350.000 0.000 0,0 991.221,249.542 Z" style="stroke-width:2.0;stroke:rgb(115,115,115);stroke-linecap:round;fill:none;"/>
<path d="M1021.511,259.054 A1330.000,1330.000 40.000 0,1 1025.047,257.696 L1017.905,239.014 A1350.000,1350.000 0.000 0,0 1014.315,240.393 Z" style="stroke-width:2.0;stroke:rgb(115,115,115);stroke-linecap:round;fill:rgb(116,196,118);"/>
<path d="M1021.511,259.054 A1330.000,1330.000 40.000 0,1 1025.047,257.696 L1017.905,239.014 A1350.000,1350.000 0.000 0,0 1014.315,240.393 Z" style="stroke-width:2.0;stroke:rgb(115,115,115);stroke-linecap:round;fill:none;"/>
<path d="M1044.425,250.460 A1330.000,1330.000 40.000 0,1 1047.986,249.167 L1041.189,230.357 A1350.000,1350.000 0.000 0,0 1037.574,231.669 Z" style="stroke-width:2.0;stroke:rgb(115,115,115);stroke-linecap:round;fill:rgb(116,196,118);"/>
<path d="M1044.425,250.460 A1330.000,1330.000 40.000 0,1 1047.986,249.167 L1041.189,230.357 A1350.000,1350.000 0.000 0,0 1037.574,231.669 Z" style="stroke-width:2.0;stroke:rgb(115,115,115);stroke-linecap:round;fill:none;"/>
<path d="M1067.493,242.289 A1330.000,1330.000 40.000 0,1 1071.078,241.062 L1064.628,222.130 A1350.000,1350.000 0.000 0,0 1060.990,223.376 Z" style="stroke-width:2.0;stroke:rgb(115,115,115);stroke-linecap:round;fill:rgb(116,196,118);"/>
<path d="M1067.493,242.289 A1330.000,1330.000 40.000 0,1 1071.078,241.062 L1064.628,222.130 A1350.000,1350.000 0.000 0,0 1060.990,223.376 Z" style="stroke-width:2.0;stroke:rgb(115,115,115);stroke-linecap:round;fill:none;"/>
<path d="M1090.708,234.543 A1330.000,1330.000 40.000 0,1 1094.315,233.383 L1088.214,214.336 A1350.000,1350.000 0.000 0,0 1084.554,215.514 Z" style="stroke-width:2.0;stroke:rgb(115,115,115);stroke-linecap:round;fill:rgb(116,196,118);"/>
<path d="M1090.708,234.543 A1330.000,1330.000 40.000 0,1 1094.315,233.383 L1088.214,214.336 A1350.000,1350.000 0.000 0,0 1084.554,215.514 Z" style="stroke-width:2.0;stroke:rgb(115,115,115);stroke-linecap:round;fill:none;"/>
<path d="M1114.062,227.227 A1330.000,1330.000 40.000 0,1 1117.689,226.133 L1111.940,206.977 A1350.000,1350.000 0.000 0,0 1108.258,208.087 Z" style="stroke-width:2.0;stroke:rgb(115,115,115);stroke-linecap:round;fill:rgb(116,196,118);"/>
<path d="M1114.062,227.227 A1330.000,1330.000 40.000 0,1 1117.689,226.133 L1111.940,206.977 A1350.000,1350.000 0.000 0,0 1108.258,208.087 Z" style="stroke-width:2.0;stroke:rgb(115,115,115);stroke-linecap:round;fill:none;"/>
<path d="M1137.546,220.341 A1330.000,1330.000 40.000 0,1 1141.192,219.314 L1135.797,200.055 A1350.000,1350.000 0.000 0,0 1132.096,201.098 Z" style="stroke-width:2.0;stroke:rgb(115,115,115);stroke-linecap:round;fill:rgb(116,196,118);"/>
<path d="M1137.546,220.341 A1330.000,1330.000 40.000 0,1 1141.192,219.314 L1135.797,200.055 A1350.000,1350.000 0.000 0,0 1132.096,201.098 Z" style="stroke-width:2.0;stroke:rgb(115,115,115);stroke-linecap:round;fill:none;"/>
<path d="M1161.153,213.889 A1330.000,1330.000 40.000 0,1 1164.818,212.929 L1159.777,193.574 A1350.000,1350.000 0.000 0,0 1156.057,194.549 Z" style="stroke-width:2.0;stroke:rgb(115,115,115);stroke-linecap:round;fill:rgb(116,196,118);"/>
<path d="M1161.153,213.889 A1330.000,1330.000 40.000 0,1 1164.818,212.929 L1159.777,193.574 A1350.000,1350.000 0.000 0,0 1156.057,194.549 Z" style="stroke-width:2.0;stroke:rgb(115,115,115);stroke-linecap:round;fill:none;"/>
<path d="M1184.874,207.872 A1330.000,1330.000 40.000 0,1 1188.556,206.979 L1183.873,187.535 A1350.000,1350.000 0.000 0,0 1180.136,188.441 Z" style="stroke-width:2.0;stroke:rgb(115,115,115);stroke-linecap:round;fill:rgb(116,196,118);"/>
<path d="M1184.874,207.872 A1330.000,1330.000 40.000 0,1 1188.556,206.979 L1183.873,187.535 A1350.000,1350.000 0.000 0,0 1180.136,188.441 Z" style="stroke-width:2.0;stroke:rgb(115,115,115);stroke-linecap:round;fill:none;"/>
<path d="M1208.703,202.292 A1330.000,1330.000 40.000 0,1 1212.400,201.468 L1208.076,181.941 A1350.000,1350.000 0.000 0,0 1204.322,182.778 Z" style="stroke-width:2.0;stroke:rgb(115,115,115);stroke-linecap:round;fill:rgb(116,196,118);"/>
<path d="M1208.703,202.292 A1330.000,1330.000 40.000 0,1 1212.400,201.468 L1208.076,181.941 A1350.000,1350.000 0.000 0,0 1204.322,182.778 Z" style="stroke-width:2.0;stroke:rgb(115,115,115);stroke-linecap:round;fill:none;"/>
<path d="M1232.630,197.152 A1330.000,1330.000 40.000 0,1 1236.342,196.396 L1232.377,176.793 A1350.000,1350.000 0.000 0,0 1228.609,177.560 Z" style="stroke-width:2.0;stroke:rgb(115,115,115);stroke-linecap:round;fill:rgb(116,196,118);"/>
<path d="M1232.630,197.152 A1330.000,1330.000 40.000 0,1 1236.342,196.396 L1232.377,176.793 A1350.000,1350.000 0.000 0,0 1228.609,177.560 Z" style="stroke-width:2.0;stroke:rgb(115,115,115);stroke-linecap:round;fill:none;"/>
<path d="M1256.647,192.453 A1330.000,1330.000 40.000 0,1 1260.373,191.765 L1256.769,172.092 A1350.000,1350.000 0.000 0,0 1252.988,172.791 Z" style="stroke-width:2.0;stroke:rgb(115,115,115);stroke-linecap:round;fill:rgb(116,196,118);"/>
<path d="M1256.647,192.453 A1330.000,1330.000 40.000 0,1 1260.373,191.765 L1256.769,172.092 A1350.000,1350.000 0.000 0,0 1252.988,172.791 Z" style="stroke-width:2.0;stroke:rgb(115,115,115);stroke-linecap:round;fill:none;"/>
<path d="M1280.747,188.197 A1330.000,1330.000 40.000 0,1 1284.484,187.577 L1281.244,167.842 A1350.000,1350.000 0.000 0,0 1277.450,168.470 Z" style="stroke-width:2.0;stroke:rgb(115,115,115);stroke-linecap:round;fill:rgb(116,196,118);"/>
<path d="M1280.747,188.197 A1330.000,1330.000 40.000 0,1 1284.484,187.577 L1281.244,167.842 A1350.000,1350.000 0.000 0,0 1277.450,168.470 Z" style="stroke-width:2.0;stroke:rgb(115,115,115);stroke-linecap:round;fill:none;"/>
<path d="M1304.921,184.384 A1330.000,1330.000 40.000 0,1 1308.669,183.834 L1305.792,164.042 A1350.000,1350.000 0.000 0,0 1301.988,164.601 Z" style="stroke-width:2.0;stroke:rgb(115,115,115);stroke-linecap:round;fill:rgb(116,196,118);"/>
<path d="M1304.921,184.384 A1330.000,1330.000 40.000 0,1 1308.669,183.834 L1305.792,164.042 A1350.000,1350.000 0.000 0,0 1301.988,164.601 Z" style="stroke-width:2.0;stroke:rgb(115,115,115);stroke-linecap:round;fill:none;"/>
<path d="M1329.161,181.018 A1330.000,1330.000 40.000 0,1 1332.919,180.537 L1330.406,160.695 A1350.000,1350.000 0.000 0,0 1326.592,161.183 Z" style="stroke-width:2.0;stroke:rgb(115,115,115);stroke-linecap:round;fill:rgb(116,196,118);"/>
<path d="M1329.161,181.018 A1330.000,1330.000 40.000 0,1 1332.919,180.537 L1330.406,160.695 A1350.000,1350.000 0.000 0,0 1326.592,161.183 Z" style="stroke-width:2.0;stroke:rgb(115,115,115);stroke-linecap:round;fill:none;"/>
<path d="M1353.459,178.098 A1330.000,1330.000 40.000 0,1 1357.225,177.686 L1355.078,157.801 A1350.000,1350.000 0.000 0,0 1351.256,158.219 Z" style="stroke-width:2.0;stroke:rgb(115,115,115);stroke-linecap:round;fill:rgb(116,196,118);"/>
<path d="M1353.459,178.098 A1330.000,1330.000 40.000 0,1 1357.225,177.686 L1355.078,157.801 A1350.000,1350.000 0.000 0,0 1351.256,158.219 Z" style="stroke-width:2.0;stroke:rgb(115,115,115);stroke-linecap:round;fill:none;"/>
<path d="M1377.807,175.625 A1330.000,1330.000 40.000 0,1 1381.580,175.282 L1379.799,155.362 A1350.000,1350.000 0.000 0,0 1375.969,155.710 Z" style="stroke-width:2.0;stroke:rgb(115,115,115);stroke-linecap:round;fill:rgb(116,196,118);"/>
<path d="M1377.807,175.625 A1330.000,1330.000 40.000 0,1 1381.580,175.282 L1379.799,155.362 A1350.000,1350.000 0.000 0,0 1375.969,155.710 Z" style="stroke-width:2.0;stroke:rgb(115,115,115);stroke-linecap:round;fill:none;"/>
<path d="M1402.196,173.601 A1330.000,1330.000 40.000 0,1 1405.974,173.328 L1404.560,153.378 A1350.000,1350.000 0.000 0,0 1400.725,153.655 Z" style="stroke-width:2.0;stroke:rgb(115,115,115);stroke-linecap:round;fill:rgb(116,196,118);"/>
<path d="M1402.196,173.601 A1330.000,1330.000 40.000 0,1 1405.974,173.328 L1404.560,153.378 A1350.000,1350.000 0.000 0,0 1400.725,153.655 Z" style="stroke-width:2.0;stroke:rgb(115,115,115);stroke-linecap:round;fill:none;"/>
<path d="M1426.618,172.026 A1330.000,1330.000 40.000 0,1 1430.401,171.822 L1429.354,151.850 A1350.000,1350.000 0.000 0,0 1425.514,152.056 Z" style="stroke-width:2.0;stroke:rgb(115,115,115);stroke-linecap:round;fill:rgb(116,196,118);"/>
<path d="M1426.618,172.026 A1330.000,1330.000 40.000 0,1 1430.401,171.822 L1429.354,151.850 A1350.000,1350.000 0.000 0,0 1425.514,152.056 Z" style="stroke-width:2.0;stroke:rgb(115,115,115);stroke-linecap:round;fill:none;"/>
<path d="M1451.065,170.901 A1330.000,1330.000 40.000 0,1 1454.851,170.767 L1454.172,150.778 A1350.000,1350.000 0.000 0,0 1450.329,150.914 Z" style="stroke-width:2.0;stroke:rgb(115,115,115);stroke-linecap:round;fill:rgb(116,196,118);"/>
<path d="M1451.065,170.901 A1330.000,1330.000 40.000 0,1 1454.851,170.767 L1454.172,150.778 A1350.000,1350.000 0.000 0,0 1450.329,150.914 Z" style="stroke-width:2.0;stroke:rgb(115,115,115);stroke-linecap:round;fill:none;"/>
<path d="M1475.528,170.225 A1330.000,1330.000 40.000 0,1 1479.316,170.161 L1479.005,150.163 A1350.000,1350.000 0.000 0,0 1475.160,150.229 Z" style="stroke-width:2.0;stroke:rgb(115,115,115);stroke-linecap:round;fill:rgb(116,196,118);"/>
<path d="M1475.528,170.225 A1330.000,1330.000 40.000 0,1 1479.316,170.161 L1479.005,150.163 A1350.000,1350.000 0.000 0,0 1475.160,150.229 Z" style="stroke-width:2.0;stroke:rgb(115,115,115);stroke-linecap:round;fill:none;"/>
</g>
</svg>
